<svg width="175" height="117" viewBox="0 0 175 117" fill="none" xmlns="http://www.w3.org/2000/svg">
<rect x="84" width="91" height="43" rx="21.5" fill="white" fill-opacity="0.2"/>
<path d="M107.26 28H109.033V19.126L113.227 28H114.082L118.267 19.126V27.991H120.049V15.04H118.33L113.659 24.787L108.961 15.04H107.26V28ZM125.316 28.27C126.864 28.27 128.031 27.709 128.817 26.587V28H130.482V22.015C130.482 21.607 130.464 21.226 130.428 20.872C130.392 20.518 130.296 20.182 130.14 19.864C129.84 19.222 129.366 18.754 128.718 18.46C128.076 18.16 127.32 18.01 126.45 18.01C125.328 18.01 124.428 18.256 123.75 18.748C123.072 19.24 122.616 19.903 122.382 20.737L124.137 21.277C124.305 20.737 124.602 20.347 125.028 20.107C125.454 19.867 125.922 19.747 126.432 19.747C127.188 19.747 127.734 19.909 128.07 20.233C128.412 20.551 128.598 21.046 128.628 21.718C127.836 21.826 127.062 21.94 126.306 22.06C125.55 22.174 124.89 22.312 124.326 22.474C123.576 22.714 123.006 23.071 122.616 23.545C122.226 24.019 122.031 24.622 122.031 25.354C122.031 25.882 122.154 26.368 122.4 26.812C122.652 27.25 123.021 27.604 123.507 27.874C123.999 28.138 124.602 28.27 125.316 28.27ZM125.649 26.731C125.049 26.731 124.605 26.593 124.317 26.317C124.035 26.041 123.894 25.714 123.894 25.336C123.894 24.952 124.02 24.649 124.272 24.427C124.53 24.205 124.851 24.028 125.235 23.896C125.643 23.776 126.123 23.671 126.675 23.581C127.233 23.491 127.878 23.392 128.61 23.284C128.604 23.512 128.589 23.767 128.565 24.049C128.541 24.331 128.49 24.583 128.412 24.805C128.34 25.123 128.187 25.429 127.953 25.723C127.725 26.017 127.416 26.26 127.026 26.452C126.642 26.638 126.183 26.731 125.649 26.731ZM132.81 32.32H134.7V27.316C135.042 27.622 135.435 27.856 135.879 28.018C136.329 28.186 136.83 28.27 137.382 28.27C138.288 28.27 139.068 28.045 139.722 27.595C140.382 27.139 140.889 26.524 141.243 25.75C141.603 24.976 141.783 24.103 141.783 23.131C141.783 22.153 141.603 21.28 141.243 20.512C140.883 19.738 140.37 19.129 139.704 18.685C139.044 18.235 138.258 18.01 137.346 18.01C136.746 18.01 136.206 18.112 135.726 18.316C135.246 18.514 134.832 18.793 134.484 19.153V18.28H132.81V32.32ZM137.121 26.569C136.197 26.569 135.525 26.248 135.105 25.606C134.691 24.964 134.484 24.139 134.484 23.131C134.484 22.123 134.691 21.301 135.105 20.665C135.519 20.029 136.17 19.711 137.058 19.711C137.682 19.711 138.195 19.864 138.597 20.17C138.999 20.476 139.296 20.887 139.488 21.403C139.686 21.919 139.785 22.495 139.785 23.131C139.785 23.773 139.689 24.355 139.497 24.877C139.305 25.393 139.011 25.804 138.615 26.11C138.225 26.416 137.727 26.569 137.121 26.569ZM147.928 28.27C148.972 28.27 149.86 28.018 150.592 27.514C151.324 27.01 151.849 26.281 152.167 25.327L150.259 24.877C150.061 25.399 149.773 25.801 149.395 26.083C149.023 26.359 148.534 26.497 147.928 26.497C147.04 26.497 146.368 26.188 145.912 25.57C145.462 24.952 145.234 24.142 145.228 23.14C145.234 22.168 145.453 21.367 145.885 20.737C146.323 20.101 147.004 19.783 147.928 19.783C148.474 19.783 148.957 19.936 149.377 20.242C149.803 20.542 150.109 20.965 150.295 21.511L152.167 20.971C151.927 20.059 151.429 19.339 150.673 18.811C149.923 18.277 149.017 18.01 147.955 18.01C146.977 18.01 146.134 18.229 145.426 18.667C144.724 19.105 144.184 19.711 143.806 20.485C143.428 21.253 143.236 22.138 143.23 23.14C143.236 24.124 143.422 25.003 143.788 25.777C144.16 26.551 144.694 27.16 145.39 27.604C146.092 28.048 146.938 28.27 147.928 28.27Z" fill="white"/>
<line x1="129.268" y1="43.4218" x2="74.2684" y2="78.4218" stroke="white"/>
<path d="M79.2281 90.4704C79.3448 90.3037 79.4567 90.134 79.5695 89.9652C79.6205 89.8897 79.6725 89.8151 79.7225 89.7396L79.75 89.6984L79.7804 89.6542C79.9109 89.458 80.0374 89.256 80.164 89.0558C80.2121 88.9793 80.2621 88.9048 80.3082 88.8292C80.4446 88.6104 80.577 88.3897 80.7085 88.17C80.7428 88.1111 80.7791 88.0532 80.8134 87.9953C80.9508 87.7629 81.0832 87.5294 81.2147 87.2959C81.2411 87.2478 81.2696 87.1978 81.2961 87.1527C81.4315 86.9103 81.5619 86.668 81.6885 86.4238L81.7542 86.3031C81.8896 86.0441 82.021 85.7841 82.1466 85.5242L82.1859 85.4457C82.3245 85.1664 82.4592 84.8852 82.59 84.602L82.5989 84.5834C82.7297 84.2976 82.8588 84.0105 82.9864 83.7221C82.9865 83.7188 82.9865 83.7155 82.9864 83.7122C83.7424 81.9815 84.3709 80.1979 84.867 78.3755C88.2113 66.0148 85.2741 52.6337 76.6373 43.0188C76.2697 42.6094 75.892 42.2079 75.5042 41.8141L75.4247 41.7337C75.0513 41.355 74.6677 40.9832 74.274 40.6183L74.1465 40.5006C73.8129 40.1938 73.4732 39.8917 73.1272 39.5941L73.1105 39.5794L73.1017 39.5716L72.9535 39.447L72.826 39.341C72.6494 39.1939 72.4738 39.0467 72.2953 38.9015L72.1697 38.8034C71.9617 38.6366 71.7538 38.4709 71.5409 38.3129L71.4987 38.2825C71.4006 38.207 71.3025 38.1344 71.2044 38.0608C71.0278 37.9293 70.8522 37.7979 70.6747 37.6684L70.4677 37.5212L70.2234 37.3427C70.087 37.2446 69.9526 37.1534 69.8163 37.0602L69.5798 36.9032C69.4366 36.8051 69.2944 36.707 69.1511 36.6167H69.1433L68.9343 36.4863L68.7627 36.3784C68.5272 36.2292 68.2905 36.0831 68.0524 35.9398L67.7836 35.7799C67.5612 35.6491 67.3376 35.5203 67.1126 35.3934L67.0714 35.3709C66.937 35.2953 66.8036 35.2188 66.6692 35.1452C66.5103 35.0589 66.3503 34.9765 66.1914 34.8931C65.9743 34.7786 65.7568 34.6668 65.539 34.5576L65.2703 34.4242C64.8877 34.2368 64.5041 34.0543 64.1176 33.8807C63.732 33.708 63.3445 33.5442 62.9551 33.3902L62.6823 33.2803C62.2899 33.1234 61.8975 32.9713 61.5002 32.829C56.7463 31.1198 51.6979 30.3809 46.6536 30.6561L46.5555 30.661C46.2428 30.6787 45.9302 30.7003 45.6176 30.7258L45.5038 30.7346C45.1866 30.7607 44.8698 30.7912 44.5532 30.8258L44.4787 30.8337C43.0916 30.9881 41.7139 31.2173 40.3515 31.5204L40.2662 31.54C39.9621 31.6077 39.6599 31.6793 39.3578 31.7548L39.2057 31.7931C38.9212 31.8657 38.6387 31.9403 38.3562 32.0187L38.1943 32.0639C37.9 32.1453 37.6174 32.2306 37.33 32.3189L37.2054 32.3562C36.2081 32.6675 35.2212 33.0184 34.2447 33.4088L34.1672 33.4412C33.8795 33.557 33.5933 33.6766 33.3088 33.8003L33.1126 33.8876C32.8674 33.9955 32.6221 34.1053 32.3788 34.2191C32.2984 34.2554 32.2199 34.2927 32.1405 34.331C31.907 34.4409 31.6741 34.5533 31.442 34.6684L31.2036 34.7872C30.9629 34.9088 30.7235 35.0331 30.4855 35.1599C30.4198 35.1943 30.354 35.2286 30.2893 35.2639C30.0041 35.417 29.72 35.5743 29.4368 35.7358L29.3907 35.7623C29.0807 35.9402 28.7723 36.1223 28.4656 36.3087L28.4528 36.3166C28.1664 36.4925 27.8822 36.6714 27.6003 36.8532L27.3796 36.9984C27.1667 37.1377 26.9548 37.2789 26.7449 37.4241C26.6517 37.4869 26.5604 37.5516 26.4682 37.6203C26.272 37.7537 26.0856 37.8891 25.8953 38.0265L25.6069 38.2384C25.4205 38.3757 25.2351 38.516 25.0507 38.6572L24.7701 38.8731C24.5778 39.0235 24.3865 39.1762 24.1962 39.3312L23.9539 39.5274C23.7145 39.7236 23.4768 39.9247 23.2407 40.1307C23.2132 40.1543 23.1838 40.1778 23.1563 40.2023L22.9886 40.3505L22.8081 40.5123L22.7423 40.5712L22.6374 40.6693C22.5471 40.7498 22.4559 40.8302 22.3666 40.9126C22.3028 40.9715 22.2391 41.0333 22.1753 41.0921L22.1341 41.1314C22.0586 41.202 21.983 41.2717 21.9085 41.3433C21.8172 41.4296 21.727 41.514 21.6367 41.6013L21.6259 41.6111C21.6193 41.6188 21.612 41.626 21.6044 41.6327L21.3346 41.8818L21.2257 41.9888L21.0746 42.1398C21.0001 42.2144 20.9265 42.2909 20.8529 42.3665C20.7793 42.442 20.7185 42.5028 20.6567 42.5715C20.6165 42.6127 20.5782 42.6559 20.538 42.6971C20.4497 42.7893 20.3604 42.8815 20.2722 42.9747C20.2202 43.0306 20.1691 43.0875 20.1171 43.1444C20.019 43.2425 19.9278 43.3485 19.8346 43.4524C19.7699 43.5231 19.7041 43.5937 19.6384 43.6653L19.6021 43.7065L19.4942 43.8301C19.4304 43.9017 19.3667 43.9734 19.3039 44.046L19.1204 44.2579C19.0086 44.3873 18.8978 44.5198 18.7879 44.6503C18.7339 44.715 18.678 44.7798 18.624 44.8465L18.5181 44.974C18.4887 45.0103 18.4583 45.0466 18.4288 45.0839C18.2209 45.3389 18.0168 45.5969 17.8137 45.8589C17.7951 45.8834 17.7765 45.906 17.7568 45.9305C17.541 46.2111 17.3294 46.4939 17.1221 46.7791C17.0564 46.8703 16.9916 46.9635 16.9259 47.0557C16.92 47.0626 16.9141 47.0714 16.9092 47.0783L16.7336 47.3255C16.6601 47.4305 16.5855 47.5354 16.5119 47.6414C16.4383 47.7473 16.3658 47.8582 16.2912 47.9641C16.1794 48.1299 16.0665 48.2957 15.9577 48.4635L15.886 48.5724C15.8262 48.6705 15.7683 48.7597 15.7085 48.8529C15.5917 49.0374 15.475 49.2218 15.3622 49.4062C15.2968 49.5161 15.2314 49.626 15.166 49.7358C15.1297 49.7957 15.0924 49.8555 15.0571 49.9163C14.9776 50.0488 14.9021 50.1822 14.8246 50.3156C14.7628 50.4235 14.7 50.5314 14.6392 50.6393C14.5476 50.7957 14.4613 50.9503 14.3802 51.1034L14.2615 51.3221C14.2213 51.3967 14.1801 51.4712 14.1408 51.5468C14.1084 51.6066 14.0751 51.6665 14.0427 51.7253C13.9564 51.8921 13.873 52.0599 13.7886 52.2266C13.7494 52.3031 13.7092 52.3797 13.6709 52.4572C13.5287 52.7446 13.3884 53.033 13.253 53.3234C13.2452 53.3401 13.2373 53.3558 13.2304 53.3715C13.2236 53.3872 13.203 53.4274 13.1902 53.4558C13.1314 53.5824 13.0754 53.7109 13.0185 53.8384C12.9793 53.9238 12.941 54.0091 12.9028 54.0955C12.7998 54.3289 12.6997 54.5644 12.6006 54.8008L12.5329 54.9637C12.4819 55.0863 12.4348 55.2089 12.3819 55.3315C12.3564 55.3953 12.3328 55.4591 12.3073 55.5228C12.2092 55.772 12.1111 56.0231 12.0189 56.2743C12.0081 56.3027 11.9983 56.3322 11.9875 56.3606C11.9679 56.4126 11.9492 56.4656 11.9306 56.5186L11.8678 56.6893L11.8021 56.8717C11.7589 56.9944 11.7167 57.118 11.6755 57.2406C11.6569 57.2936 11.6392 57.3475 11.6216 57.4005C11.5588 57.5879 11.495 57.7743 11.4362 57.9616C11.4358 57.9632 11.4358 57.9649 11.4362 57.9665C11.4175 58.0254 11.3999 58.0843 11.3822 58.1431C11.356 58.2255 11.3305 58.3079 11.3057 58.3903C11.22 58.667 11.1383 58.9436 11.0604 59.2203L11.0192 59.3674L10.9957 59.4518C10.9859 59.4851 10.977 59.5165 10.9682 59.5499C10.9045 59.7814 10.8446 60.0139 10.7858 60.2464C10.7769 60.2798 10.7681 60.3131 10.7602 60.3445C10.7063 60.5584 10.6553 60.7713 10.6052 60.9861C10.5964 61.0253 10.5856 61.0656 10.5768 61.1058C10.568 61.146 10.5542 61.2039 10.5434 61.2569C10.4453 61.6931 10.3548 62.13 10.2717 62.5675C10.2658 62.594 10.2609 62.6205 10.256 62.646C10.2511 62.6715 10.2452 62.7127 10.2383 62.7441C10.1625 63.1587 10.0928 63.575 10.0294 63.9929C10.0225 64.04 10.0147 64.0861 10.0078 64.1342C9.94208 64.5795 9.88616 65.0249 9.83613 65.4713C9.82828 65.5419 9.82043 65.6126 9.81357 65.6832C9.81357 65.6969 9.81357 65.7107 9.81357 65.7244L9.79296 65.8921C9.74522 66.3709 9.70631 66.8496 9.67622 67.3283C9.67622 67.3931 9.66838 67.4588 9.66445 67.5246C9.64777 67.8189 9.63306 68.119 9.62325 68.4163C9.62325 68.4781 9.62325 68.5409 9.61638 68.6027C9.61638 68.7312 9.60853 68.8587 9.60559 68.9863C9.60559 69.0098 9.60559 69.0343 9.60559 69.0579C9.60559 69.362 9.59872 69.6641 9.59971 69.9683C9.59971 70.0006 9.59971 70.034 9.59971 70.0664C9.59971 70.2223 9.59971 70.3773 9.60559 70.5323C9.60559 70.5618 9.60559 70.5902 9.60559 70.6196C9.61148 70.8865 9.62129 71.1523 9.63208 71.4192C9.63208 71.4447 9.63208 71.4702 9.63208 71.4967C9.64091 71.686 9.6517 71.8753 9.66249 72.0647C9.66249 72.1334 9.67132 72.202 9.67524 72.2717C9.68767 72.4731 9.70238 72.6739 9.71939 72.874C9.71939 72.925 9.72822 72.9721 9.73214 73.028C9.75111 73.2478 9.77138 73.4669 9.79296 73.6853C9.79983 73.7461 9.8067 73.806 9.81259 73.8658C9.88256 74.5107 9.96759 75.1519 10.0676 75.7896L10.0882 75.9171C10.134 76.2023 10.1837 76.4871 10.2374 76.7716C10.2472 76.8295 10.258 76.8873 10.2688 76.9452C10.2913 77.062 10.3129 77.1787 10.3364 77.2954L10.3453 77.3366C10.3767 77.4926 10.409 77.6496 10.4434 77.8046C10.4807 77.9779 10.5192 78.1506 10.5591 78.3226C10.5758 78.3971 10.5925 78.4707 10.6101 78.5443L10.6543 78.7346V78.7473C10.7465 79.1339 10.8446 79.5187 10.9486 79.902L10.9535 79.9167L10.9918 80.0541C10.9976 80.0756 11.0045 80.0972 11.0104 80.1188C11.0163 80.1404 11.03 80.1865 11.0389 80.2169C11.083 80.3709 11.1252 80.5259 11.1703 80.6799C11.2442 80.9252 11.3204 81.1701 11.3989 81.4147L11.4224 81.4922C11.5683 81.9454 11.7233 82.3954 11.8874 82.8421C11.9139 82.9157 11.9394 82.9873 11.9669 83.0589C11.9944 83.1305 12.0218 83.2149 12.0513 83.2914C12.1827 83.6387 12.322 83.985 12.4633 84.3283C12.4661 84.336 12.4694 84.3435 12.4731 84.3509C12.5015 84.4205 12.532 84.4902 12.5604 84.5608C12.7409 84.9876 12.9263 85.4123 13.1215 85.8361C13.1274 85.8489 13.1343 85.8626 13.1402 85.8764L13.1696 85.9362C13.3334 86.2854 13.5041 86.6317 13.6788 86.9771C13.6905 87.0016 13.7043 87.0251 13.716 87.0497L13.7965 87.2076C13.8249 87.2616 13.8514 87.3165 13.8799 87.3704C14.0957 87.7835 14.3213 88.1935 14.5528 88.5997L14.6814 88.8243C14.8256 89.0705 14.9757 89.3148 15.1208 89.5601L15.1611 89.6258C15.217 89.718 15.2719 89.8102 15.3288 89.9015C15.3543 89.9427 15.3818 89.9829 15.4073 90.0231L15.5172 90.1928C15.7732 90.5931 16.0352 90.9904 16.3079 91.3828L16.3402 91.4309C16.6169 91.8233 16.9024 92.2157 17.1967 92.6081L17.3438 92.8043C17.6296 93.1751 17.9239 93.5417 18.2267 93.904L18.3945 94.1002C18.6888 94.4494 18.988 94.7957 19.297 95.1361C19.3137 95.1538 19.3304 95.1705 19.3461 95.1881C19.3765 95.2215 19.4089 95.2549 19.4442 95.2862C19.7633 95.6335 20.0903 95.9752 20.4252 96.3114C20.4674 96.3536 20.5086 96.3968 20.5508 96.438C20.5743 96.4625 20.5969 96.488 20.6224 96.5115C20.9392 96.8284 21.2669 97.1374 21.6034 97.4435C21.6711 97.5063 21.7378 97.5681 21.8065 97.6299C22.1616 97.9536 22.5246 98.2734 22.8954 98.5854L23.0818 98.7394C23.4742 99.0641 23.8666 99.3849 24.2766 99.6969C24.5539 99.9088 24.8332 100.116 25.1144 100.32L25.343 100.481L25.5961 100.659C25.7197 100.745 25.8423 100.832 25.9669 100.916C26.0758 100.991 26.1867 101.063 26.2966 101.137L26.3525 101.174H26.3584L26.4143 101.21C26.4986 101.267 26.583 101.325 26.6693 101.38L26.6811 101.388L26.8322 101.486C26.9479 101.561 27.0637 101.633 27.1804 101.706L27.1893 101.711L27.2874 101.772C27.4286 101.86 27.5709 101.947 27.7141 102.033L27.8936 102.145L27.9633 102.184L28.0673 102.244C28.2478 102.35 28.4293 102.454 28.6117 102.558C28.7265 102.622 28.8413 102.688 28.9571 102.754C29.0218 102.789 29.0856 102.827 29.1533 102.863L29.1729 102.872C29.2945 102.939 29.4172 103.002 29.5388 103.069C29.6448 103.124 29.7487 103.18 29.8547 103.235C29.8988 103.258 29.942 103.282 29.9871 103.305C30.0852 103.356 30.1833 103.403 30.2873 103.454L30.5522 103.586C30.6218 103.619 30.6895 103.654 30.7582 103.684C30.7847 103.695 30.8102 103.71 30.8367 103.723C31.1271 103.862 31.4181 103.996 31.7098 104.127L31.7294 104.136L31.8824 104.202L31.9747 104.242C32.1915 104.34 32.4102 104.438 32.629 104.524C32.6712 104.541 32.7143 104.558 32.7555 104.575L32.8075 104.596L32.9056 104.637L33.146 104.735L33.5668 104.902L33.763 104.975L33.9279 105.036C34.0554 105.084 34.181 105.134 34.3085 105.18L34.332 105.188H34.3438C34.4027 105.209 34.4625 105.228 34.5214 105.248L34.7352 105.323L34.8843 105.374C35.0845 105.444 35.2856 105.511 35.4877 105.575L35.6201 105.619L35.7516 105.66L35.8389 105.688C36.0518 105.755 36.2656 105.817 36.4795 105.884L36.6992 105.948L36.7924 105.975L36.9749 106.028C37.1524 106.077 37.33 106.126 37.5076 106.169L37.6636 106.21C37.8529 106.259 38.0432 106.308 38.2325 106.352L38.4749 106.409C38.573 106.433 38.6711 106.458 38.776 106.481C39.43 106.628 40.087 106.759 40.7469 106.873L40.8038 106.882L40.9725 106.908C41.0461 106.921 41.1206 106.934 41.1952 106.945C41.3708 106.972 41.5464 107 41.721 107.025L41.7671 107.031H41.774C42.0869 107.075 42.3999 107.115 42.7148 107.152H42.7236C43.0621 107.19 43.3995 107.225 43.737 107.25H43.736L43.9234 107.265C44.0294 107.275 44.1363 107.286 44.2422 107.294C44.8557 107.34 45.4688 107.373 46.0816 107.392C46.2249 107.392 46.3681 107.392 46.5103 107.398H46.6742C47.5473 107.407 48.42 107.387 49.2925 107.337L49.4269 107.329C49.5387 107.321 49.6515 107.317 49.7624 107.31C50.3745 107.268 50.9857 107.21 51.5959 107.138C51.7529 107.12 51.9089 107.098 52.0658 107.077L52.1688 107.063C53.0557 106.946 53.9386 106.797 54.8176 106.619L54.8921 106.603C55.777 106.422 56.6563 106.209 57.5301 105.964L57.5811 105.949C57.6959 105.917 57.8096 105.887 57.9244 105.851C58.689 105.628 59.4466 105.382 60.1974 105.11L60.2269 105.099C60.632 104.953 61.0342 104.805 61.4345 104.645C61.7222 104.531 62.0094 104.413 62.2958 104.291C62.4655 104.218 62.6343 104.142 62.803 104.068L62.8207 104.059L62.9354 104.009C63.5741 103.724 64.2108 103.421 64.8347 103.101C64.9328 103.049 65.0309 102.994 65.1368 102.941L65.2212 102.897L65.336 102.836L65.3487 102.829C65.6489 102.669 65.9468 102.506 66.2424 102.339L66.2836 102.316C66.6241 102.12 66.9615 101.924 67.297 101.728C67.6541 101.511 68.0073 101.285 68.3585 101.056L68.489 100.97C68.7911 100.774 69.0893 100.568 69.3866 100.361C69.4219 100.336 69.4582 100.311 69.4945 100.286C70.1452 99.8287 70.7845 99.348 71.4124 98.8444L71.5948 98.6962C71.8506 98.4896 72.1046 98.2787 72.3571 98.0635L72.5298 97.9163C73.1262 97.4016 73.7096 96.8663 74.2799 96.3104C74.3544 96.2388 74.427 96.1662 74.5006 96.0936C74.7171 95.8791 74.9316 95.662 75.1441 95.4422C75.2148 95.3686 75.2864 95.2961 75.356 95.2225C75.6288 94.9354 75.8982 94.6437 76.1644 94.3474L76.2144 94.2905C76.4597 94.0152 76.702 93.7353 76.9414 93.4508L77.168 93.1771C77.3563 92.9495 77.5427 92.7206 77.7272 92.4904L77.942 92.2186L78.0548 92.0754L78.1127 91.9979C78.2958 91.7598 78.476 91.5195 78.6532 91.2768C78.6574 91.272 78.661 91.2667 78.664 91.2611L78.6738 91.2494L78.6944 91.219C78.7572 91.1326 78.818 91.0463 78.8799 90.959C78.9966 90.7971 79.1143 90.6382 79.2281 90.4704Z" fill="#FDF8F9"/>
<path d="M76.8619 91.164C64.3246 107.449 41.1981 110.727 25.2057 98.4883C9.21318 86.2491 6.41239 63.1276 18.9488 46.8428C31.4851 30.558 54.6135 27.2794 70.605 39.5186C86.5965 51.7577 89.3983 74.8802 76.8619 91.164Z" fill="#D86B44"/>
<path d="M57.9473 49.7908C57.1085 48.7117 56.5091 47.4874 56.3119 46.113C56.1383 44.9053 56.5847 43.7301 56.4267 42.545C56.4213 42.498 56.4023 42.4536 56.3721 42.4171C56.3418 42.3807 56.3017 42.3539 56.2565 42.3398C56.2113 42.3258 56.163 42.3252 56.1174 42.3381C56.0719 42.351 56.0311 42.3769 56 42.4126C55.0082 43.374 55.1769 45.0986 55.4594 46.3111C55.8028 47.7679 56.5974 49.0531 57.8041 49.9203C57.8865 49.9801 58.0179 49.882 57.9473 49.7908Z" fill="#B94F46"/>
<path d="M58.7801 38.4748C59.0342 37.6419 59.0411 36.7962 58.6614 36.0222C58.3328 35.3463 57.3753 35.8368 57.7275 36.5127C58.218 37.4594 57.7942 38.4748 57.3694 39.3645C57.0452 40.0786 56.7695 40.8137 56.5444 41.5649C56.4983 41.7101 56.7171 41.7543 56.7838 41.6375C57.4214 40.5221 58.3956 39.7412 58.7801 38.4748Z" fill="#B94F46"/>
<path d="M57.8395 35.0001C57.9082 34.6596 57.4883 34.2741 57.3 34.0269C57.1626 33.8483 56.8095 33.9965 56.9223 34.2231C57.0714 34.54 57.2166 35.0825 57.5786 35.1845C57.6374 35.1932 57.6974 35.1788 57.746 35.1445C57.7946 35.1102 57.8281 35.0584 57.8395 35.0001Z" fill="#B94F46"/>
<path d="M54.1713 56.3803C53.7466 54.8479 54.3734 53.1017 55.9028 52.3944C55.9559 52.3757 55.9994 52.3366 56.0237 52.2858C56.0479 52.2351 56.0511 52.1767 56.0323 52.1236C56.0136 52.0706 55.9745 52.0271 55.9238 52.0028C55.873 51.9785 55.8146 51.9754 55.7616 51.9942C53.7995 52.4847 52.4555 54.7802 53.3198 56.6962C53.3635 56.8067 53.4487 56.8957 53.5572 56.9442C53.6657 56.9926 53.7889 56.9966 53.9003 56.9552C54.0117 56.9139 54.1025 56.8306 54.1532 56.7231C54.2038 56.6156 54.2104 56.4925 54.1713 56.3803Z" fill="#B94F46"/>
<path d="M58.1054 51.5507C57.8562 51.3113 57.3637 51.382 57.0429 51.3928C57.0037 51.3975 56.967 51.4147 56.9382 51.4418C56.9094 51.4689 56.89 51.5045 56.8829 51.5434C56.8758 51.5823 56.8813 51.6225 56.8986 51.658C56.9159 51.6936 56.9442 51.7227 56.9792 51.741C57.2735 51.8597 57.7071 52.0893 58.0298 51.949C58.0678 51.9344 58.1013 51.9104 58.1273 51.8793C58.1534 51.8481 58.171 51.8108 58.1786 51.7709C58.1861 51.731 58.1834 51.6898 58.1706 51.6513C58.1578 51.6128 58.1353 51.5781 58.1054 51.5507Z" fill="#B94F46"/>
<path d="M53.1234 71.8675C52.4092 70.1174 49.2602 70.5589 47.82 71.0513C45.7599 71.7557 44.1648 73.3498 43.6272 75.4659C43.6241 75.4843 43.6271 75.5033 43.6357 75.5198C43.6444 75.5364 43.6583 75.5496 43.6752 75.5575C43.6921 75.5654 43.7112 75.5676 43.7295 75.5636C43.7477 75.5596 43.7642 75.5498 43.7763 75.5355C44.8633 73.9924 46.3348 72.6053 48.1859 72.0961C49.1866 71.8204 50.2363 71.8332 51.2398 72.0255C51.8755 72.1471 52.3719 72.3365 53.0057 72.1236C53.0305 72.1148 53.0532 72.1012 53.0727 72.0835C53.0921 72.0658 53.1078 72.0444 53.1187 72.0205C53.1297 71.9966 53.1358 71.9708 53.1366 71.9445C53.1374 71.9182 53.1329 71.892 53.1234 71.8675Z" fill="#B94F46"/>
<path d="M55.0681 71.8027C54.816 71.687 54.5678 71.6625 54.297 71.6144C54.2469 71.6073 54.1958 71.6164 54.1511 71.6404C54.1065 71.6643 54.0706 71.7019 54.0487 71.7476C54.0269 71.7933 54.0201 71.8447 54.0295 71.8945C54.0389 71.9443 54.0639 71.9898 54.1008 72.0245C54.3118 72.1981 54.4932 72.3708 54.7414 72.4875C55.178 72.6857 55.5086 71.999 55.0681 71.8027Z" fill="#B94F46"/>
<path d="M55.2061 64.5432C55.0707 63.9595 54.6283 63.417 54.3742 62.8755C54.1299 62.3556 53.9769 61.766 53.6679 61.2823C53.6469 61.2543 53.6182 61.233 53.5853 61.221C53.5525 61.209 53.5168 61.2068 53.4827 61.2147C53.4486 61.2226 53.4175 61.2403 53.3933 61.2655C53.369 61.2908 53.3526 61.3225 53.3461 61.3569C53.2411 61.9779 53.4442 62.6597 53.6257 63.2444C53.8072 63.829 54.0711 64.6011 54.5567 64.9964C54.8892 65.2711 55.2944 64.9248 55.2061 64.5432Z" fill="#B94F46"/>
<path d="M55.7514 68.0386C55.6199 67.5481 55.3953 67.085 55.206 66.6142C55.1078 66.3679 54.6635 66.4376 54.7233 66.726C54.8312 67.2489 54.9028 67.7855 55.0716 68.2907C55.2197 68.7341 55.8701 68.48 55.7514 68.0386Z" fill="#B94F46"/>
<path d="M18.9485 46.8429C15.5794 51.2041 13.2091 56.2519 12.0049 61.6297L12.049 61.665C12.8892 62.3427 13.9038 62.7689 14.9759 62.8946C16.0479 63.0203 17.1337 62.8402 18.1078 62.3752C18.924 61.9828 19.9109 61.9152 20.6888 62.3596C22.5841 63.4387 22.8598 66.3317 21.7061 68.2054C21.5943 68.3791 21.5193 68.5739 21.4855 68.7777C21.4518 68.9815 21.4601 69.19 21.5099 69.3905C21.7444 70.242 22.5704 70.1753 23.2591 70.2028C24.8346 70.2557 26.2708 71.015 27.7256 71.5968C29.3875 72.2599 31.3338 72.6965 32.9142 71.6056C33.9109 70.9189 34.3985 69.6289 33.8776 68.5576C33.4027 67.5766 32.3501 67.4118 31.4358 67.0743C28.9019 66.1394 27.138 63.4759 27.2498 60.7507C28.532 61.4158 29.7298 59.2792 29.0922 57.9754C28.4545 56.6716 27.0173 56.0016 26.0677 54.9146C24.6197 53.2548 24.5059 50.5609 25.8058 48.7284C27.1056 46.8958 29.6945 46.1002 31.7507 46.9027C34.3602 47.921 35.8543 51.0534 38.6178 51.5439C41.8552 52.1168 44.5471 48.6322 45.1249 45.3635C45.7027 42.0948 45.068 38.6828 45.9793 35.4857C46.3337 34.2727 46.9091 33.1356 47.6765 32.1316C36.85 32.4269 26.1511 37.4879 18.9485 46.8429Z" fill="#BB4F45"/>
<path d="M37.8263 39.1576C37.272 37.9519 35.6014 37.4418 34.4379 38.1226L34.1534 38.2443C33.0743 38.1707 31.4556 39.8365 31.1182 40.8714C30.7807 41.9064 31.0613 43.065 31.6793 43.94C32.1011 44.5365 32.8065 45.0564 33.5197 44.8602C34.4958 44.5924 34.7656 43.2386 35.6622 42.7619C35.9075 42.6304 36.1831 42.5755 36.4421 42.4774C37.6988 41.9996 38.3816 40.3643 37.8263 39.1576Z" fill="#7B4343"/>
<path d="M72.115 40.7399C70.0731 38.9951 67.8425 37.4841 65.4647 36.2351C66.1887 37.1788 66.7705 38.204 66.8745 39.4803C66.9549 40.478 66.6145 41.5022 65.8385 42.1496C63.5174 44.0901 60.4753 40.6919 58.3651 42.2477C57.031 43.2288 57.4047 45.2742 57.9198 46.8242C58.5898 48.8431 60.285 51.3319 62.2166 50.3794C62.4638 50.2448 62.6968 50.0858 62.9121 49.9045C63.2741 49.6199 63.7037 49.434 64.159 49.365C66.6773 48.9971 67.365 51.6213 66.2515 52.9643C64.3219 55.2962 60.5793 52.3424 57.6814 53.1507C54.805 53.9542 54.2881 57.943 55.2102 60.7546C56.4561 64.5501 59.2402 67.7923 62.8199 69.5444C63.6803 69.9663 64.2699 70.8433 64.1865 71.8086C64.0952 72.8573 63.2839 73.1614 62.5354 73.4028C59.3452 74.4328 55.5035 74.9891 52.7312 73.544C51.6295 72.9701 50.2914 73.233 49.3957 74.1326C48.7989 74.7317 48.1245 75.248 47.3905 75.6679C46.026 76.4459 44.3877 76.9481 44.0943 78.9249C43.9393 79.9677 44.2601 81.0135 44.8792 81.8522C46.2349 83.6995 48.4324 84.4137 50.3777 85.4653C51.6177 86.1353 52.8371 87.0604 53.4905 88.271C53.9251 89.0764 54.6677 89.6591 55.58 89.7965C57.5803 90.0965 59.5597 90.5225 61.5064 91.0718C62.2097 91.268 62.9376 91.5005 63.4527 92.0155C64.1757 92.7375 64.3238 93.8608 64.2797 94.8938C64.1649 97.5494 63.0583 100.056 62.3432 102.634C68.3675 99.938 73.5798 95.7099 77.4606 90.3713C88.8423 74.7742 86.5006 53.031 72.115 40.7399Z" fill="#B94F46"/>
<path d="M77.6199 63.0541L77.096 62.13C76.2337 61.1489 75.3027 60.1277 74.0441 59.7755C72.7855 59.4233 71.1334 60.063 70.9049 61.3658C70.7567 62.1947 71.1992 62.9864 71.4248 63.7908C71.8614 65.3663 71.4385 67.0615 70.9343 68.6351C70.4301 70.2086 69.812 71.8028 69.8836 73.443C69.9552 75.0833 70.9235 76.8059 72.5235 77.1385C74.4463 77.5378 76.2112 75.8426 77.2 74.1121C78.9894 70.9856 79.3592 66.1374 77.6199 63.0541Z" fill="#E29050"/>
<path d="M82.1416 72.2098C82.5271 71.1444 82.5899 69.9966 82.6144 68.8744C82.6605 66.7161 81.4941 64.6266 80.2315 62.901L79.2486 62.4664C78.5618 61.9052 77.4504 62.6459 77.2502 63.5259C77.0501 64.4059 77.4003 65.2917 77.5789 66.1687C77.7973 67.2506 77.7604 68.3685 77.471 69.4335C77.0697 70.911 76.2064 72.5443 76.9805 73.8412C77.5514 74.8007 78.8993 75.0999 79.9519 74.6829C81.0046 74.266 81.756 73.2742 82.1416 72.2098Z" fill="#7B4343"/>
<path d="M81.7479 77.2896C79.8084 76.9413 77.7846 78.1048 76.68 79.7725C75.5753 81.4403 75.2614 83.5073 75.3144 85.4879C75.335 86.2149 75.335 87.0821 74.7326 87.5C74.0528 87.9719 73.1444 87.5078 72.3272 87.5785C70.1935 87.7629 69.6451 91.27 67.5271 91.6095C65.8967 91.8714 64.7626 90.0124 64.5635 88.378C64.3643 86.7436 64.5792 84.9327 63.6354 83.6005C62.0295 81.3314 58.0907 82.3104 56.5957 84.7169C55.1006 87.1233 55.3439 90.1605 55.7334 92.9328C55.904 94.1522 56.0679 95.4982 55.3861 96.542C54.8956 97.2964 54.047 97.7388 53.2092 98.0616C50.5931 99.0678 47.7269 99.2264 45.0158 98.5148C42.5063 97.8438 39.9145 95.7886 40.3314 93.1967C40.8386 90.0241 45.3444 88.7125 45.9536 85.5546C46.4441 83.0325 44.1574 80.9193 41.9413 79.6931C39.8091 78.5139 37.5271 77.6285 35.1576 77.061C33.5693 76.6794 31.881 76.445 30.2947 76.9041C28.7084 77.3632 27.2536 78.6699 27.0701 80.3101C26.8808 81.969 27.9599 83.6927 27.2918 85.2319C26.303 87.5088 22.6506 86.7613 21.2949 84.7316C20.1834 83.0638 19.896 80.8644 20.5385 78.9338C20.977 77.6143 21.8138 76.4518 22.3043 75.149C22.7948 73.8462 22.8606 72.2286 21.907 71.2495C20.2638 69.5641 16.8833 70.8728 15.347 69.0913C14.4101 68.0023 14.7015 66.2846 15.399 64.9995C16.0965 63.7143 17.1393 62.6136 17.6867 61.2579C18.7972 58.511 17.3061 55.0657 14.6004 54.0052C7.44984 69.362 11.4426 87.9552 25.2052 98.4864C41.1957 110.725 64.3241 107.446 76.8614 91.1621C79.8858 87.2465 82.1095 82.7737 83.4058 77.9989C82.9126 77.6424 82.3463 77.4001 81.7479 77.2896Z" fill="#E29050"/>
<path d="M69.6345 88.0297C69.3402 85.9784 66.6729 83.9095 65.2259 82.4468L64.6373 82.0544C64.4359 81.8321 64.1711 81.6772 63.8787 81.6107C63.5863 81.5442 63.2805 81.5693 63.0029 81.6826C62.7256 81.8056 62.4914 82.0088 62.3304 82.2659C62.1694 82.523 62.089 82.8224 62.0994 83.1256C62.1298 83.6662 62.4594 84.1429 62.5448 84.6766C62.741 85.8725 61.7207 86.8996 60.8829 87.7933C59.8578 88.8871 58.9209 90.3439 59.279 91.7772C59.434 92.409 59.8264 92.9544 60.2531 93.4361C60.7848 94.0394 61.395 94.5888 62.117 94.9439C63.9633 95.8504 66.3668 95.2784 67.8501 93.7971C69.3334 92.3158 69.9289 90.081 69.6345 88.0297Z" fill="#7B4343"/>
<path d="M43.4288 99.2133C42.3428 97.8242 40.368 97.4406 38.5993 97.6535C37.6742 97.7653 36.5391 97.9282 36.0094 97.1728C35.5787 96.5557 35.8289 95.6208 35.3757 95.0146C35.1794 94.7516 34.8694 94.5947 34.5585 94.4799C32.5415 93.7392 30.0174 94.735 28.9922 96.6617C28.9663 96.7097 28.936 96.7554 28.9019 96.798L27.9965 97.9144C27.872 98.0661 27.7044 98.1763 27.5158 98.2303L27.4648 98.245C26.7153 98.4697 26.5632 99.4811 27.2048 99.9079C31.6559 102.86 36.7114 104.779 42.0004 105.523C42.1597 105.544 42.3216 105.525 42.4712 105.466C42.6208 105.408 42.7532 105.312 42.8559 105.189C43.2176 104.763 43.5205 104.29 43.7564 103.784C44.4324 102.312 44.4098 100.468 43.4288 99.2133Z" fill="#7B4343"/>
<path d="M34.0239 78.1038C32.3562 73.5588 26.8929 71.79 22.0438 71.5085C22.0212 68.6174 25.7403 66.1757 24.7367 63.4847C23.7331 60.7938 18.8349 60.836 18.6544 57.9577C18.573 56.6255 19.6629 55.5366 20.3309 54.3662C21.4464 52.4111 21.3679 49.8536 20.1347 48.0142C19.8187 47.5472 19.4349 47.1299 18.9958 46.7761C18.9781 46.7997 18.9595 46.8222 18.9408 46.8448C8.91587 59.8746 8.7079 77.2856 17.2211 89.9927C18.0216 90.2434 18.8371 90.443 19.6629 90.5901C23.4064 91.2464 27.5257 90.6519 30.5835 88.3034C33.6413 85.9549 35.3326 81.6688 34.0239 78.1038Z" fill="#7B4343"/>
<path d="M38.9102 89.8857C39.5096 88.1032 37.5564 86.7004 37.8949 85.0386C38.0312 84.3705 38.5227 83.8192 38.7071 83.1629C38.8916 82.5066 37.5054 81.0115 36.8373 81.1292L36.5087 81.1027C35.9701 80.4249 35.2412 79.6744 34.3848 79.8598C32.928 80.1767 32.9731 82.7047 31.5457 83.1383C30.6226 83.4209 29.6593 82.6066 28.7293 82.8588C28.1122 83.0265 27.6894 83.6436 27.5618 84.2694C27.4343 84.8953 27.5481 85.5448 27.6698 86.1648C27.7679 86.67 27.8817 87.1958 28.2132 87.5833C29.0961 88.6094 30.7913 88.0689 32.0843 88.4741C33.8403 89.0234 34.7468 91.3102 36.6048 91.4465C37.6153 91.5211 38.5835 90.855 38.9102 89.8857Z" fill="#E7A38C"/>
<path d="M65.5682 96.5361C64.5705 96.3988 63.6631 96.8363 62.6252 96.6215C61.9038 96.4677 61.233 96.1344 60.6748 95.6523C60.1166 95.1703 59.6891 94.5551 59.432 93.8638C59.3682 93.698 59.1318 93.7912 59.174 93.9619C59.5585 95.4874 60.4365 96.7794 61.9335 97.37C63.0431 97.8075 64.8766 97.9723 65.6997 96.9109C65.7261 96.8804 65.744 96.8435 65.7516 96.8039C65.7592 96.7643 65.7561 96.7234 65.7428 96.6853C65.7294 96.6472 65.7062 96.6134 65.6756 96.5872C65.6449 96.561 65.6079 96.5434 65.5682 96.5361Z" fill="#7B4343"/>
<path d="M69.4121 93.2997C69.3985 93.2656 69.3753 93.2361 69.3453 93.215C69.3153 93.1938 69.2798 93.1818 69.2431 93.1804C69.2064 93.1791 69.1701 93.1884 69.1386 93.2073C69.1071 93.2263 69.0818 93.2539 69.0658 93.287C68.9677 93.4665 68.7999 93.6058 68.7097 93.7932C68.6008 94.0178 68.5478 94.2454 68.4095 94.4603C68.1548 94.8653 67.8212 95.215 67.4285 95.4884C67.3958 95.5112 67.3715 95.5441 67.3593 95.5821C67.3471 95.62 67.3477 95.6609 67.3609 95.6985C67.3742 95.7361 67.3994 95.7683 67.4326 95.7902C67.4659 95.8122 67.5054 95.8226 67.5452 95.82C68.1721 95.7375 68.6989 95.4952 69.1011 94.9724C69.5465 94.3926 69.6632 93.959 69.4121 93.2997Z" fill="#7B4343"/>
<path d="M73.5131 88.7576C72.1927 88.6026 70.8791 89.2393 70.3847 90.5235C70.3705 90.5554 70.3682 90.5914 70.3782 90.6248C70.3882 90.6583 70.4099 90.6871 70.4393 90.7059C70.4688 90.7248 70.504 90.7325 70.5386 90.7276C70.5732 90.7228 70.6049 90.7057 70.628 90.6794C71.3147 89.9427 72.3624 89.5189 73.3424 89.7043C73.9438 89.8161 74.1224 88.8302 73.5131 88.7576Z" fill="#7B4343"/>
<path d="M36.5214 82.2378C37.1835 79.1034 36.18 76.1624 33.8834 74.0512C33.7853 73.9629 33.6293 74.1032 33.7098 74.2072C35.3775 76.388 35.9141 79.3487 35.2725 82.0357C35.0832 82.8313 36.3497 83.0452 36.5214 82.2378Z" fill="#7B4343"/>
<path d="M33.0896 72.7475C32.6217 71.5987 31.2905 71.22 30.1338 71.3554C29.8582 71.3878 29.7051 71.5801 29.6247 71.8283C29.6046 71.8993 29.602 71.9742 29.6172 72.0465C29.6324 72.1188 29.6649 72.1863 29.712 72.2432C29.7688 72.3247 29.8462 72.3896 29.9364 72.4311C30.0266 72.4727 30.1263 72.4894 30.2251 72.4796C31.1472 72.4021 31.9301 72.7396 32.7757 73.0359C32.9444 73.0967 33.1701 72.9456 33.0896 72.7475Z" fill="#7B4343"/>
<path opacity="0.41" d="M40.6946 88.5673C26.7711 77.9125 24.3323 57.7821 35.247 43.6055C39.3789 38.2179 45.0824 34.2469 51.5691 32.2415C39.4585 31.2869 27.0134 36.3686 18.9485 46.8429C6.41208 63.1277 9.21386 86.2502 25.2054 98.4863C41.1969 110.723 64.3242 107.446 76.8616 91.1621C77.3521 90.5293 77.8034 89.8868 78.2439 89.2315C67.0446 96.9599 51.8693 97.1208 40.6946 88.5673Z" fill="url(#paint0_linear_461_77)" style="mix-blend-mode:multiply"/>
<path opacity="0.41" d="M31.4986 95.5874C15.5071 83.3483 12.7063 60.2268 25.2426 43.942C28.2461 40.0313 31.9852 36.7458 36.2496 34.2701C29.3877 36.6991 23.3778 41.0665 18.9485 46.8428C6.41209 63.1276 9.21386 86.2501 25.2054 98.4863C37.2287 107.688 53.2839 108.116 65.8409 100.841C54.521 104.848 41.5912 103.31 31.4986 95.5874Z" fill="url(#paint1_linear_461_77)" style="mix-blend-mode:multiply"/>
<path opacity="0.22" d="M26.526 98.0478C10.3432 85.6635 7.50807 62.2654 20.1916 45.7873C21.6137 43.9397 23.2002 42.2247 24.9318 40.6635C22.7095 42.4903 20.7019 44.5637 18.9477 46.8438C6.41227 63.1277 9.21405 86.2502 25.2055 98.4863C34.1808 105.353 45.4036 107.335 55.7396 104.871C45.7558 106.774 35.1226 104.626 26.526 98.0478Z" fill="#DB7354"/>
<path d="M34.9518 63.3661C36.6597 66.8193 35.6699 70.8355 32.7415 72.3355C29.8132 73.8355 26.0559 72.2501 24.347 68.797C22.6381 65.3438 23.6289 61.3275 26.5572 59.8276C29.4856 58.3276 33.2438 59.911 34.9518 63.3661Z" fill="#A44E46"/>
<path d="M71.4239 85.4938C67.7941 86.9271 63.9221 85.6263 62.7812 82.5871C61.6403 79.5479 63.6641 75.9211 67.2938 74.4878C70.9236 73.0546 74.7927 74.3534 75.9336 77.3946C77.0745 80.4357 75.0556 84.0655 71.4239 85.4938Z" fill="#A44E46"/>
<path d="M56.4195 65.4105C55.0324 71.3172 57.9254 76.7 62.8815 77.4348C67.8375 78.1696 72.98 73.9767 74.3672 68.0749C75.7543 62.1732 72.8623 56.7805 67.9062 56.0467C62.9501 55.3129 57.8077 59.5048 56.4195 65.4105Z" fill="url(#paint2_linear_461_77)" style="mix-blend-mode:multiply"/>
<path d="M57.0782 64.9504C55.7597 70.5637 58.5085 75.6807 63.2193 76.3782C67.9301 77.0757 72.8176 73.0918 74.137 67.4775C75.4565 61.8631 72.7057 56.7471 67.9949 56.0487C63.2841 55.3502 58.3937 59.336 57.0782 64.9504Z" fill="url(#paint3_linear_461_77)" style="mix-blend-mode:multiply"/>
<path d="M57.617 65.5881C56.3113 71.1475 59.0336 76.2174 63.6983 76.9041C68.363 77.5908 73.2023 73.6491 74.5081 68.0907C75.8138 62.5322 73.0905 57.4653 68.4258 56.7737C63.7611 56.0821 58.9227 60.0306 57.617 65.5881Z" fill="#FDF8F9"/>
<path d="M63.719 67.6079C63.2521 69.5935 64.185 71.3975 65.8007 71.6369C67.4165 71.8763 69.1058 70.4597 69.5727 68.4751C70.0397 66.4905 69.1067 64.6864 67.4891 64.4471C65.8714 64.2077 64.185 65.6223 63.719 67.6079Z" fill="#111214"/>
<path d="M68.603 67.0762C68.446 67.7462 68.6922 68.3456 69.1543 68.4133C69.6164 68.481 70.1186 67.9944 70.2756 67.3244C70.4326 66.6544 70.1863 66.0559 69.7243 65.9873C69.2622 65.9186 68.7609 66.4071 68.603 67.0762Z" fill="#FDF8F9"/>
<path opacity="0.4" d="M68.2613 56.756C66.0049 57.4672 64.0272 59.65 63.3709 62.4459C62.4998 66.1512 64.2901 69.5258 67.3685 69.982C70.447 70.4382 73.647 67.8032 74.5201 64.0959C74.576 63.8546 74.6182 63.6162 74.6555 63.3798C74.9288 64.9432 74.8774 66.546 74.5044 68.0887C73.2026 73.65 68.3594 77.5957 63.6986 76.904C59.0378 76.2124 56.3115 71.1465 57.6163 65.5871C58.9073 60.0934 63.6505 56.1782 68.2613 56.756Z" fill="url(#paint4_linear_461_77)" style="mix-blend-mode:multiply"/>
<path opacity="0.45" d="M63.4416 76.2017C67.0164 76.9364 70.8247 74.9469 73.1752 71.4928C71.0847 75.1647 67.3382 77.4485 63.6986 76.91C59.6951 76.3164 57.1258 72.4954 57.3014 67.915C57.427 72.0451 59.7726 75.4482 63.4416 76.2017Z" fill="#FDF8F9"/>
<path opacity="0.32" d="M58.9638 72.048C59.2189 72.3786 59.5181 72.564 59.6339 72.462C59.7496 72.3599 59.6339 72.0087 59.3788 71.6772C59.1237 71.3456 58.8235 71.1621 58.7088 71.2641C58.594 71.3662 58.7078 71.7174 58.9638 72.048Z" fill="#FDF8F9"/>
<path d="M30.1352 56.9276C29.6555 60.3347 30.4599 63.5691 32.1482 66.0452C33.8365 68.5213 36.4088 70.238 39.4656 70.6098C45.5783 71.3525 51.3123 66.4317 52.2727 59.6225C53.2331 52.8133 49.055 46.6829 42.9423 45.9403C36.8296 45.1977 31.0956 50.1135 30.1352 56.9276Z" fill="url(#paint5_linear_461_77)" style="mix-blend-mode:multiply"/>
<path d="M30.8736 56.3842C29.9613 62.8589 33.9314 68.6831 39.742 69.3895C45.5525 70.0958 51.0021 65.4183 51.9144 58.9427C52.8267 52.467 48.8566 46.6437 43.049 45.9374C37.2414 45.231 31.7869 49.9085 30.8736 56.3842Z" fill="url(#paint6_linear_461_77)" style="mix-blend-mode:multiply"/>
<path d="M31.6116 57.1071C30.7081 63.52 34.639 69.2854 40.3927 69.9849C46.1463 70.6844 51.5429 66.052 52.4464 59.6382C53.3499 53.2243 49.418 47.4599 43.6653 46.7604C37.9127 46.0609 32.5152 50.6943 31.6116 57.1071Z" fill="#FDF8F9"/>
<path d="M39.2751 59.3036C38.9523 61.5943 40.3071 63.6475 42.3005 63.8898C44.2939 64.1322 46.1716 62.4713 46.4944 60.1816C46.8171 57.8919 45.4623 55.8377 43.4689 55.5954C41.4755 55.3531 39.5978 57.0139 39.2751 59.3036Z" fill="#111214"/>
<path d="M45.1448 58.5934C45.0359 59.3674 45.4097 60.0492 45.9797 60.1189C46.5496 60.1885 47.099 59.6176 47.2079 58.8436C47.3168 58.0696 46.943 57.3878 46.374 57.3191C45.8051 57.2504 45.2537 57.8204 45.1448 58.5934Z" fill="#FDF8F9"/>
<path opacity="0.4" d="M43.4662 46.7437C40.8175 47.606 38.6759 50.1547 38.2217 53.3763C37.6194 57.6516 40.2102 61.4913 44.0097 61.9533C47.8092 62.4154 51.3742 59.3232 51.9765 55.048C52.0157 54.7703 52.0393 54.4947 52.052 54.222C52.5738 55.9779 52.7077 57.8263 52.4444 59.6391C51.5409 66.052 46.1444 70.6843 40.3907 69.9849C34.6371 69.2854 30.7062 63.52 31.6097 57.1071C32.5053 50.7688 37.7881 46.1737 43.4662 46.7437Z" fill="url(#paint7_linear_461_77)" style="mix-blend-mode:multiply"/>
<path opacity="0.45" d="M39.9945 69.1824C44.4287 69.9535 48.8119 67.5912 51.2438 63.5691C49.1543 67.8296 44.8819 70.5343 40.3928 69.9849C35.4554 69.3845 31.858 65.0514 31.5127 59.7823C32.1749 64.5275 35.4426 68.3907 39.9945 69.1824Z" fill="#FDF8F9"/>
<path opacity="0.32" d="M34.0425 64.5011C34.3937 64.8758 34.7802 65.0828 34.9068 64.9632C35.0333 64.8435 34.8528 64.4422 34.5016 64.0675C34.1504 63.6927 33.7639 63.4867 33.6364 63.6064C33.5088 63.7261 33.6913 64.1273 34.0425 64.5011Z" fill="#FDF8F9"/>
<path d="M51.7929 84.0252C49.6847 88.4584 45.997 91.1385 43.5523 90.0094C41.1077 88.8802 40.8438 84.3744 42.951 79.9451C45.0582 75.5159 48.7458 72.8328 51.1915 73.961C53.6372 75.0891 53.9001 79.592 51.7929 84.0252Z" fill="#4C3133"/>
<path opacity="0.68" d="M51.7929 84.0252C49.6847 88.4584 45.997 91.1385 43.5523 90.0094C41.1077 88.8802 40.8438 84.3744 42.951 79.9451C45.0582 75.5159 48.7458 72.8328 51.1915 73.961C53.6372 75.0891 53.9001 79.592 51.7929 84.0252Z" fill="url(#paint8_linear_461_77)" style="mix-blend-mode:multiply"/>
<path d="M49.2944 87.757C49.2944 84.1331 47.3147 80.5083 43.9243 78.1941C43.5633 78.7567 43.2383 79.3415 42.9512 79.9452C40.843 84.3784 41.1137 88.8871 43.5545 90.0143C45.1928 90.7668 47.3893 89.8054 49.2944 87.757Z" fill="#A44E46"/>
<path d="M70.6052 39.5185C67.6799 37.2758 64.4258 35.4982 60.958 34.2485C61.3013 35.0677 61.4485 35.9221 61.1924 36.7766C60.7676 38.1696 59.3452 39.1134 58.9802 40.5221C58.5015 42.3733 60.024 44.0832 61.5721 45.1545C62.3971 45.7264 63.3065 46.2473 64.3189 46.3317C65.3313 46.416 66.4516 45.9648 66.8872 45.0377C67.052 44.6855 67.1413 44.2529 67.4758 44.0567C67.8682 43.836 68.3391 44.0802 68.7305 44.2892C70.7907 45.384 73.512 45.2241 75.4995 44.039C74.0117 42.3838 72.3733 40.8704 70.6052 39.5185Z" fill="#7B4343"/>
<path d="M41.6686 42.1055C41.1921 41.8897 40.7407 41.6223 40.3226 41.3079C40.1497 41.1602 40.041 40.951 40.0195 40.7246C39.9981 40.4981 40.0655 40.2722 40.2075 40.0946C40.3496 39.917 40.5552 39.8016 40.7808 39.7728C41.0064 39.744 41.2344 39.8041 41.4165 39.9404C41.4341 39.9541 43.2353 41.3481 45.367 40.9881C46.7944 40.7468 48.0932 39.7687 49.2263 38.0804C49.3533 37.8883 49.5509 37.754 49.7763 37.7068C50.0017 37.6596 50.2366 37.7032 50.43 37.8282C50.5241 37.8921 50.6046 37.9738 50.6669 38.0689C50.7292 38.1639 50.7721 38.2703 50.7932 38.382C50.8143 38.4937 50.813 38.6084 50.7896 38.7196C50.7662 38.8308 50.721 38.9363 50.6566 39.03C49.2342 41.148 47.5331 42.3841 45.5995 42.7029C44.024 42.9609 42.629 42.5489 41.6686 42.1055Z" fill="#111214"/>
<path d="M73.7966 55.4973C69.7607 53.6334 69.2182 49.5219 69.5586 47.4078C69.5942 47.1792 69.7182 46.9736 69.9039 46.8355C70.0896 46.6973 70.3221 46.6376 70.5514 46.6691C70.6634 46.6852 70.7711 46.7236 70.8682 46.7819C70.9652 46.8402 71.0496 46.9173 71.1164 47.0087C71.1832 47.1001 71.2311 47.2039 71.2572 47.3141C71.2833 47.4242 71.2872 47.5385 71.2685 47.6502C71.2332 47.8817 70.52 52.9653 75.8017 54.3662C75.9113 54.3953 76.0139 54.4462 76.1035 54.5156C76.1931 54.5851 76.2678 54.6719 76.3233 54.7707C76.3788 54.8696 76.414 54.9785 76.4267 55.0912C76.4394 55.2039 76.4293 55.3179 76.3972 55.4266C76.3352 55.649 76.1885 55.8382 75.9886 55.9538C75.7887 56.0693 75.5516 56.1019 75.3279 56.0447C74.8026 55.907 74.2902 55.7238 73.7966 55.4973Z" fill="#111214"/>
<path d="M46.8271 74.9557C47.6021 75.8209 48.8471 76.6028 50.3588 77.0786C51.2669 77.3694 52.2149 77.516 53.1684 77.5132C53.0154 75.8092 52.3503 74.4946 51.1848 73.956C49.935 73.3772 48.3546 73.8069 46.8271 74.9557Z" fill="#FDF8F9"/>
<defs>
<linearGradient id="paint0_linear_461_77" x1="16.659" y1="48.4316" x2="74.2664" y2="92.9132" gradientUnits="userSpaceOnUse">
<stop stop-color="#CA9B4A"/>
<stop offset="1" stop-color="#EDECEC"/>
</linearGradient>
<linearGradient id="paint1_linear_461_77" x1="61325.2" y1="196472" x2="71717.9" y2="181144" gradientUnits="userSpaceOnUse">
<stop stop-color="#CA9B4A"/>
<stop offset="1" stop-color="#EDECEC"/>
</linearGradient>
<linearGradient id="paint2_linear_461_77" x1="57.4206" y1="62.5884" x2="73.3809" y2="70.8827" gradientUnits="userSpaceOnUse">
<stop stop-color="#4D4D4D"/>
<stop offset="1" stop-color="#EDECEC"/>
</linearGradient>
<linearGradient id="paint3_linear_461_77" x1="64551.7" y1="96343.4" x2="62131.6" y2="99224.9" gradientUnits="userSpaceOnUse">
<stop stop-color="#4D4D4D"/>
<stop offset="1" stop-color="#EDECEC"/>
</linearGradient>
<linearGradient id="paint4_linear_461_77" x1="61770.9" y1="99059.9" x2="63608.8" y2="96476" gradientUnits="userSpaceOnUse">
<stop stop-color="#4D4D4D"/>
<stop offset="1" stop-color="#EDECEC"/>
</linearGradient>
<linearGradient id="paint5_linear_461_77" x1="292.443" y1="83075.1" x2="5427.04" y2="83075.1" gradientUnits="userSpaceOnUse">
<stop stop-color="#4D4D4D"/>
<stop offset="1" stop-color="#EDECEC"/>
</linearGradient>
<linearGradient id="paint6_linear_461_77" x1="71883" y1="105758" x2="69027.2" y2="109762" gradientUnits="userSpaceOnUse">
<stop stop-color="#4D4D4D"/>
<stop offset="1" stop-color="#EDECEC"/>
</linearGradient>
<linearGradient id="paint7_linear_461_77" x1="68685.1" y1="109635" x2="70812.1" y2="106096" gradientUnits="userSpaceOnUse">
<stop stop-color="#4D4D4D"/>
<stop offset="1" stop-color="#EDECEC"/>
</linearGradient>
<linearGradient id="paint8_linear_461_77" x1="42.988" y1="79.9308" x2="51.807" y2="84.0638" gradientUnits="userSpaceOnUse">
<stop stop-color="#8A4946"/>
<stop offset="1" stop-color="#EDECEC"/>
</linearGradient>
</defs>
</svg>
