<svg width="149" height="113" viewBox="0 0 149 113" fill="none" xmlns="http://www.w3.org/2000/svg">
<rect x="16" width="133" height="43" rx="21.5" fill="white" fill-opacity="0.2"/>
<path d="M39.26 28H41.033V19.126L45.227 28H46.082L50.267 19.126V27.991H52.049V15.04H50.33L45.659 24.787L40.961 15.04H39.26V28ZM58.8815 28.27C59.8235 28.27 60.6785 28.033 61.4465 27.559C62.2145 27.079 62.7875 26.404 63.1655 25.534L61.3205 24.949C60.8285 25.981 59.9855 26.497 58.7915 26.497C57.9755 26.497 57.3335 26.251 56.8655 25.759C56.3975 25.267 56.1245 24.571 56.0465 23.671H63.2915C63.3575 22.507 63.2195 21.502 62.8775 20.656C62.5355 19.81 62.0165 19.159 61.3205 18.703C60.6245 18.241 59.7815 18.01 58.7915 18.01C57.8435 18.01 57.0125 18.223 56.2985 18.649C55.5845 19.075 55.0265 19.678 54.6245 20.458C54.2285 21.238 54.0305 22.159 54.0305 23.221C54.0305 24.223 54.2315 25.105 54.6335 25.867C55.0415 26.623 55.6085 27.214 56.3345 27.64C57.0665 28.06 57.9155 28.27 58.8815 28.27ZM58.8635 19.675C60.3335 19.675 61.1675 20.518 61.3655 22.204H56.0915C56.2115 21.382 56.5025 20.755 56.9645 20.323C57.4265 19.891 58.0595 19.675 58.8635 19.675ZM65.3018 32.32H67.1918V27.316C67.5338 27.622 67.9268 27.856 68.3708 28.018C68.8208 28.186 69.3218 28.27 69.8738 28.27C70.7798 28.27 71.5598 28.045 72.2138 27.595C72.8738 27.139 73.3808 26.524 73.7348 25.75C74.0948 24.976 74.2748 24.103 74.2748 23.131C74.2748 22.153 74.0948 21.28 73.7348 20.512C73.3748 19.738 72.8618 19.129 72.1958 18.685C71.5358 18.235 70.7498 18.01 69.8378 18.01C69.2378 18.01 68.6978 18.112 68.2178 18.316C67.7378 18.514 67.3238 18.793 66.9758 19.153V18.28H65.3018V32.32ZM69.6128 26.569C68.6888 26.569 68.0168 26.248 67.5968 25.606C67.1828 24.964 66.9758 24.139 66.9758 23.131C66.9758 22.123 67.1828 21.301 67.5968 20.665C68.0108 20.029 68.6618 19.711 69.5498 19.711C70.1738 19.711 70.6868 19.864 71.0888 20.17C71.4908 20.476 71.7878 20.887 71.9798 21.403C72.1778 21.919 72.2768 22.495 72.2768 23.131C72.2768 23.773 72.1808 24.355 71.9888 24.877C71.7968 25.393 71.5028 25.804 71.1068 26.11C70.7168 26.416 70.2188 26.569 69.6128 26.569ZM76.253 28H78.17V23.32L82.238 28H84.794L80.348 23.14L84.38 18.28H81.986L78.17 22.96V18.28H76.262L76.253 28ZM87.0154 32.32H88.8064L94.1704 18.28H92.2624L89.5174 25.588L86.6464 18.28H84.6844L88.6174 27.955L87.0154 32.32ZM95.5713 32.32H97.4613V27.316C97.8033 27.622 98.1963 27.856 98.6403 28.018C99.0903 28.186 99.5913 28.27 100.143 28.27C101.049 28.27 101.829 28.045 102.483 27.595C103.143 27.139 103.65 26.524 104.004 25.75C104.364 24.976 104.544 24.103 104.544 23.131C104.544 22.153 104.364 21.28 104.004 20.512C103.644 19.738 103.131 19.129 102.465 18.685C101.805 18.235 101.019 18.01 100.107 18.01C99.5073 18.01 98.9673 18.112 98.4873 18.316C98.0073 18.514 97.5933 18.793 97.2453 19.153V18.28H95.5713V32.32ZM99.8823 26.569C98.9583 26.569 98.2863 26.248 97.8663 25.606C97.4523 24.964 97.2453 24.139 97.2453 23.131C97.2453 22.123 97.4523 21.301 97.8663 20.665C98.2803 20.029 98.9313 19.711 99.8193 19.711C100.443 19.711 100.956 19.864 101.358 20.17C101.76 20.476 102.057 20.887 102.249 21.403C102.447 21.919 102.546 22.495 102.546 23.131C102.546 23.773 102.45 24.355 102.258 24.877C102.066 25.393 101.772 25.804 101.376 26.11C100.986 26.416 100.488 26.569 99.8823 26.569ZM114.721 18.28H113.2L108.331 24.904V18.28H106.522V28H108.052L112.912 21.241V28H114.721V18.28ZM121.575 17.164C122.055 17.164 122.49 17.047 122.88 16.813C123.27 16.579 123.582 16.267 123.816 15.877C124.05 15.481 124.167 15.046 124.167 14.572H122.673C122.673 14.872 122.565 15.13 122.349 15.346C122.139 15.562 121.881 15.67 121.575 15.67C121.275 15.67 121.017 15.562 120.801 15.346C120.585 15.13 120.477 14.872 120.477 14.572H118.983C118.983 15.046 119.1 15.481 119.334 15.877C119.568 16.267 119.88 16.579 120.27 16.813C120.666 17.047 121.101 17.164 121.575 17.164ZM125.427 18.28H123.906L119.037 24.904V18.28H117.228V28H118.758L123.618 21.241V28H125.427V18.28Z" fill="white"/>
<line x1="82.3113" y1="43.3913" x2="38.3113" y2="78.3913" stroke="white"/>
<path d="M61.3454 82.9743L61.2692 83.2808C61.2393 83.4028 61.2031 83.5439 61.1647 83.6851L60.8649 84.7172C60.8356 84.8104 60.8051 84.9058 60.774 84.9995L60.6724 85.3038C60.6329 85.4201 60.5926 85.5361 60.5516 85.6516L59.7504 87.6492L59.4455 88.3019C59.4128 88.3696 59.3806 88.4374 59.3467 88.5051L59.0277 89.1301C58.965 89.2481 58.9024 89.3633 58.8391 89.4779L58.3265 90.3768C58.2053 90.58 58.0805 90.7829 57.9521 90.9854C57.7828 91.2542 57.5925 91.5376 57.3745 91.8538C57.3458 91.8978 57.3271 91.9255 57.3085 91.9526L57.256 92.026C57.0584 92.3083 56.8709 92.5629 56.6795 92.8164L56.4988 93.0525C56.3091 93.2969 56.1172 93.5386 55.9207 93.774L55.7366 93.9897C55.5774 94.1779 55.4163 94.3623 55.2533 94.543L54.9851 94.8383C54.8547 94.9789 54.7136 95.1291 54.5702 95.277L54.1608 95.688C53.9801 95.8659 53.7978 96.0426 53.6126 96.2148L53.2738 96.5236C53.131 96.6518 52.9859 96.78 52.8391 96.9059L52.3767 97.2955C52.2406 97.4084 52.0994 97.5213 51.9572 97.6342L51.7483 97.7974C51.6805 97.8539 51.6116 97.9041 51.5433 97.956L51.3395 98.1085C51.0945 98.2903 50.8505 98.4659 50.6055 98.637L50.5649 98.6652C50.4395 98.7521 50.3023 98.8436 50.1646 98.9351L49.9263 99.0909C49.8664 99.1299 49.8038 99.1688 49.7417 99.2083L49.5672 99.3179C49.4543 99.389 49.3351 99.4624 49.2143 99.5358L49.1319 99.5844C48.9772 99.6775 48.8118 99.7752 48.6452 99.8701L48.5961 99.8983C47.6232 100.452 46.6175 100.945 45.5845 101.376L45.5004 101.411C42.8002 102.526 39.9411 103.207 37.0285 103.43C36.8094 103.447 36.5903 103.461 36.3713 103.473C35.7169 103.508 35.0512 103.52 34.3923 103.508C33.9514 103.5 33.5065 103.482 33.0689 103.451C30.8361 103.306 28.629 102.893 26.4952 102.219C26.2795 102.152 26.0642 102.081 25.8493 102.007C24.9888 101.712 24.1312 101.37 23.3012 100.991C22.2411 100.505 21.2119 99.9542 20.2196 99.3416C20.0021 99.208 19.7875 99.0713 19.576 98.9317L18.8888 98.4653C18.7257 98.3524 18.567 98.2395 18.4112 98.1266L18.0724 97.873C17.903 97.7454 17.745 97.6224 17.5869 97.4976L17.4898 97.4214C17.2263 97.2102 16.9669 96.9958 16.7117 96.7783L16.6508 96.7252C9.0811 90.1944 5.72452 80.1693 7.88865 70.5592L7.9039 70.4903C8.0298 69.9398 8.17547 69.3825 8.33638 68.8416L8.36574 68.7445C8.43575 68.5142 8.50802 68.2872 8.58311 68.0597L8.63958 67.8954C8.70319 67.7072 8.77 67.519 8.84001 67.3308L8.86316 67.2647C8.97608 66.957 9.09691 66.6482 9.22338 66.341L9.29508 66.1637C9.37977 65.9622 9.46446 65.7634 9.55536 65.5652L9.88396 64.8651C9.9201 64.79 9.95567 64.7149 9.99293 64.6393L10.2069 64.222C10.2634 64.1131 10.3198 64.0013 10.3819 63.8901L10.5733 63.5383C10.6484 63.4039 10.7241 63.2718 10.7992 63.1403L10.955 62.8721C11.0871 62.6508 11.2204 62.4323 11.3581 62.2154C11.5016 61.9896 11.6484 61.7677 11.7974 61.5475L11.9668 61.3053C12.0295 61.2138 12.0927 61.1224 12.1565 61.032L12.4038 60.6933C12.5348 60.5149 12.6697 60.3364 12.8064 60.1603L13.0486 59.8509C13.3371 59.4907 13.625 59.1485 13.9175 58.8177L13.9779 58.7505C14.2704 58.4224 14.5736 58.0983 14.8779 57.7906L14.9344 57.7342C15.2438 57.4214 15.5661 57.1131 15.8897 56.8167L15.9286 56.7806C16.2623 56.4774 16.6061 56.1787 16.9528 55.8947C24.0499 50.0674 33.5855 48.1958 42.4735 50.8776L42.5808 50.9104C43.1832 51.0944 43.7885 51.3056 44.379 51.5314L44.5185 51.5879C45.0679 51.8013 45.611 52.0322 46.1338 52.2739L46.424 52.4117C46.5595 52.476 46.6905 52.5404 46.8193 52.6053L46.9988 52.6956C47.1697 52.7822 47.3391 52.8703 47.507 52.9599L47.7215 53.0728C47.8427 53.1391 47.963 53.2057 48.0823 53.2727L48.4154 53.4613C48.6412 53.5919 48.8656 53.7259 49.0884 53.8633C50.5595 54.7722 51.9433 55.8155 53.2219 56.9799L53.2586 57.0025L53.3405 57.0877C53.6391 57.3638 53.9355 57.6495 54.2218 57.938C54.5273 58.2468 54.8158 58.5523 55.0936 58.8589L55.1178 58.8871C56.7732 60.7241 58.1694 62.7789 59.2677 64.9944C59.4568 65.3755 59.6251 65.7374 59.7826 66.0948L59.8018 66.1394C59.9576 66.4951 60.1078 66.8593 60.2495 67.2235L60.2715 67.2799C60.4121 67.6464 60.5459 68.0139 60.6668 68.3781L60.6764 68.4086C60.8074 68.8004 60.9231 69.1719 61.0247 69.5282L61.0405 69.5847C61.2703 70.3898 61.4674 71.2316 61.6215 72.0689L61.6356 72.1485C61.6701 72.3416 61.7034 72.5347 61.7339 72.7289L61.8496 73.5437C61.8716 73.7204 61.892 73.8915 61.91 74.0631L61.9891 74.9151C62.0015 75.0781 62.0122 75.2416 62.0212 75.4057L62.0308 75.5881C62.0393 75.7575 62.0455 75.9207 62.05 76.0821L62.0557 76.2769C62.0557 76.4152 62.0608 76.5558 62.0613 76.697V76.9533C62.0613 77.1165 62.0579 77.2791 62.0551 77.4417L62.0224 78.3123C62.0133 78.4857 62.0015 78.6629 61.9879 78.8408L61.9529 79.2592C61.9433 79.3721 61.9332 79.4743 61.9224 79.5793L61.9162 79.6465C61.8999 79.8001 61.8824 79.9395 61.8654 80.0795L61.8259 80.398L60.656 80.2416L61.8197 80.4414C61.7869 80.6786 61.7525 80.905 61.7158 81.1308L61.3454 82.9743ZM59.135 82.0506L60.2958 82.2696L59.1429 82.0167L59.3896 80.7305C59.4224 80.5318 59.4534 80.3246 59.4822 80.1168L59.524 79.7859C59.5409 79.6476 59.5567 79.5189 59.5709 79.3907L59.5765 79.3292C59.5872 79.2247 59.5963 79.1287 59.6053 79.0322L59.6369 78.646C59.6488 78.4845 59.6601 78.3225 59.6685 78.161L59.6985 77.3706C59.6985 77.2238 59.7041 77.0741 59.7047 76.9245V76.6868C59.7047 76.562 59.7047 76.4333 59.699 76.3052L59.6939 76.129C59.6894 75.9805 59.6838 75.8337 59.677 75.6869L59.6674 75.5051C59.6595 75.3594 59.6493 75.2109 59.6386 75.063L59.5878 74.4758L60.7582 74.342L59.581 74.438L59.5647 74.2805C59.5483 74.1235 59.5291 73.966 59.5082 73.8079L59.4026 73.0604C59.3749 72.8859 59.3461 72.7075 59.3123 72.5291L59.3044 72.485C59.1587 71.6912 58.9786 70.9216 58.7646 70.1702L58.7607 70.1583C58.6664 69.8258 58.5585 69.4774 58.4405 69.1234L59.546 68.7282L58.427 69.081C58.3141 68.7507 58.1938 68.4125 58.0645 68.076L58.0447 68.0247C57.9154 67.6915 57.7782 67.359 57.6365 67.036L57.6179 66.9931C57.4762 66.6713 57.3249 66.3467 57.1662 66.0254L57.1397 65.9718C56.1347 63.9469 54.8567 62.0694 53.3416 60.3918L53.3252 60.3726C53.0745 60.0959 52.8125 59.8198 52.5483 59.5522C52.2841 59.2846 52.0283 59.0384 51.7669 58.7968L51.7025 58.7403C50.5118 57.6466 49.2201 56.6682 47.8446 55.8185C47.6402 55.6926 47.4347 55.5706 47.228 55.4504L46.9243 55.281C46.8114 55.2172 46.7018 55.1562 46.5917 55.0963L46.3986 54.9936C46.24 54.9089 46.0858 54.8293 45.9306 54.7508L45.7663 54.6684C45.6449 54.608 45.5252 54.5498 45.4049 54.4917L45.1463 54.3703C44.6602 54.1444 44.1639 53.9333 43.6614 53.7379L43.5293 53.6871C42.9946 53.4827 42.4419 53.2919 41.892 53.1225L41.8033 53.096C33.673 50.6422 24.96 52.3524 18.4852 57.6693C18.1592 57.9369 17.8439 58.2094 17.5394 58.4868L16.6965 57.6681L17.5044 58.519C17.2091 58.7889 16.915 59.0717 16.6299 59.3597L16.579 59.4111C16.3013 59.6934 16.0246 59.9886 15.7564 60.289L15.7 60.3534C15.4368 60.6515 15.1732 60.9643 14.9219 61.2788L14.6899 61.5746C14.5634 61.7378 14.4403 61.9004 14.3189 62.0653L14.097 62.3701C14.0372 62.4543 13.9807 62.5356 13.9277 62.6174L13.7696 62.8467C13.6335 63.0477 13.4986 63.2509 13.3676 63.4576C13.2417 63.6558 13.1197 63.8556 13 64.0566L12.8532 64.3005C12.7828 64.4214 12.7136 64.5424 12.6454 64.6636L12.4704 64.9837C12.414 65.0853 12.3626 65.1875 12.3095 65.2897L12.1209 65.6556C12.082 65.7341 12.0515 65.7984 12.0204 65.8628L11.7138 66.5194C11.631 66.7012 11.552 66.8838 11.4767 67.0671L11.4101 67.2252C11.2945 67.506 11.1848 67.7883 11.0809 68.0721L11.0685 68.1054C10.9962 68.3036 10.9347 68.4775 10.876 68.6508L10.8229 68.8095C10.758 69.0059 10.6919 69.2143 10.6287 69.4232L10.6021 69.5101C10.4536 70.007 10.3198 70.5157 10.2069 71.0221L10.199 71.0577C8.21386 79.8622 11.2808 89.024 18.1955 94.9896L18.252 95.0404C18.4812 95.2375 18.7178 95.4356 18.9589 95.6254L19.0458 95.6931C19.1937 95.81 19.3394 95.9229 19.4873 96.0319L19.8058 96.269C19.9475 96.3723 20.0926 96.4751 20.2388 96.5767L20.8729 97.0069C21.066 97.1334 21.2613 97.2588 21.4595 97.3813C22.3673 97.9418 23.309 98.4457 24.2791 98.8899C25.0374 99.2366 25.8205 99.5494 26.607 99.8192C26.8035 99.8866 27.0001 99.9514 27.197 100.013C29.1455 100.629 31.1609 101.008 33.1999 101.143C33.5996 101.169 34.0061 101.185 34.4093 101.192C35.0111 101.203 35.6198 101.192 36.216 101.16C36.4164 101.15 36.6163 101.136 36.8167 101.121C39.4508 100.92 42.0372 100.308 44.4824 99.3083L44.5055 99.2947L44.5896 99.2642C45.5452 98.8685 46.4752 98.4136 47.3743 97.9024L47.4369 97.8668C47.5875 97.7795 47.7392 97.6905 47.892 97.5998L47.9581 97.5603C48.0676 97.4936 48.1766 97.4264 48.285 97.3587L48.4544 97.2537C48.5063 97.2209 48.5588 97.1882 48.6102 97.1543L48.8304 97.0086C48.9523 96.9273 49.0771 96.8443 49.1996 96.7591L49.2392 96.732C49.4531 96.5835 49.6767 96.4226 49.8975 96.2588L50.0753 96.1267C50.1391 96.0782 50.2029 96.0285 50.2662 95.9788L50.4638 95.8247C50.5948 95.7213 50.7229 95.6175 50.8505 95.5119L51.2706 95.1584C51.4033 95.0455 51.5365 94.9275 51.6658 94.8084L51.9769 94.5261C52.1463 94.3702 52.31 94.2093 52.4749 94.0462L52.8487 93.6707C52.9808 93.5346 53.1101 93.398 53.2377 93.2591L53.4731 92.9994C53.6237 92.8334 53.7709 92.664 53.9147 92.4912L54.1015 92.2733C54.2845 92.0508 54.4493 91.8436 54.6097 91.6336L54.7791 91.4128C54.9484 91.187 55.1212 90.9533 55.2872 90.715L55.4075 90.5405C55.5893 90.2769 55.7666 90.0132 55.9382 89.7433C56.0551 89.5592 56.1697 89.3718 56.282 89.1843L56.758 88.3645C56.8145 88.2612 56.8709 88.1573 56.9274 88.0529L57.9143 85.943L58.322 84.8742C58.3615 84.7641 58.3982 84.6585 58.4349 84.5529L58.5269 84.2774C58.5563 84.1887 58.5834 84.104 58.6093 84.0193L58.8837 83.0759C58.9193 82.946 58.9515 82.8184 58.9837 82.6897L59.0723 82.3301L59.135 82.0506Z" fill="white"/>
<path d="M60.5114 82.7692C63.8494 68.7794 54.9793 54.6764 40.6996 51.2692C26.4198 47.862 12.1378 56.4409 8.79984 70.4307C5.46184 84.4205 14.3319 98.5235 28.6116 101.931C42.8914 105.338 57.1734 96.759 60.5114 82.7692Z" fill="#EDB557"/>
<path d="M12.0849 62.663C6.90858 70.8171 6.93343 80.736 11.26 88.7111C13.7866 87.0861 14.9497 83.5901 13.7482 80.8168C13.3338 79.8603 12.6675 78.8881 12.8973 77.8808C13.1621 76.7194 14.4935 76.1023 14.9948 75.0211C15.4381 74.0658 15.1563 72.9535 15.0716 71.9022C14.8272 68.8748 16.4634 65.7921 19.1232 64.2693C20.3411 63.572 21.8091 63.1226 22.5701 61.9635C22.9089 61.4457 23.0783 60.8252 23.4679 60.3414C24.2312 59.39 25.5981 59.2156 26.8036 58.9462C28.009 58.6769 29.364 58.0242 29.5069 56.8177C29.6571 55.549 28.3585 54.496 28.2896 53.22C28.2393 52.3167 28.7588 51.6391 29.4256 51C22.4826 52.3082 16.1099 56.3231 12.0849 62.663Z" fill="#E08B46"/>
<path d="M21.5192 53.8329C17.6775 55.9298 14.4314 58.968 12.0852 62.6627C9.86718 66.1416 8.53004 70.1085 8.18945 74.2202C10.0727 72.3354 11.5737 70.1041 12.6097 67.6493C13.1743 66.2988 13.5989 64.8828 14.3295 63.6118C16.3423 60.1113 20.5673 57.893 21.4904 53.9678C21.5011 53.9232 21.5096 53.8781 21.5192 53.8329Z" fill="#BD5A46"/>
<path d="M36.3996 55.5284C36.6294 56.3866 36.9857 57.3916 36.4273 58.0799C35.9378 58.6857 35.0248 58.6834 34.2468 58.8139C32.3096 59.143 30.67 60.7256 30.3002 62.621C30.1907 63.1856 30.1799 63.7767 29.9315 64.2939C29.1315 65.9612 26.7217 65.7455 24.8642 66.0301C20.3937 66.7149 17.7948 71.5632 17.5808 76.0072C17.4272 79.169 18.1087 82.3545 17.7118 85.4925C17.3696 88.1976 15.8875 91.0217 13.4541 92.0984C15.4378 94.7009 17.8836 96.9161 20.6692 98.6332C33.1345 106.331 49.5013 102.706 57.2262 90.5379C64.9511 78.3695 61.1062 62.2675 48.6425 54.5669C45.0436 52.3421 40.972 50.9947 36.7565 50.6333C36.1365 52.1899 35.9604 53.8916 36.3996 55.5284Z" fill="#F0CB7D"/>
<path d="M48.6421 54.5673C46.377 53.1679 43.9181 52.1099 41.3445 51.4275C41.3395 51.4456 41.3338 51.4631 41.3293 51.484C41.2288 51.9108 41.1881 52.3811 41.3908 52.7746C41.6133 53.2054 42.0751 53.4522 42.4506 53.7655C43.6363 54.7491 43.9812 56.4756 43.5945 57.9402C43.2077 59.4048 42.2033 60.639 41.069 61.6587C40.4383 62.2261 39.7021 62.7648 38.845 62.8206C37.988 62.8765 37.0343 62.2374 37.071 61.3945C35.1813 62.7687 34.8482 65.7876 36.3935 67.5571C36.7667 67.9851 37.2286 68.3476 37.5227 68.8303C38.3612 70.2204 37.4454 72.0655 36.0971 72.9666C34.7488 73.8677 33.0782 74.1489 31.5537 74.7259C30.175 75.2482 28.7601 76.0397 27.3096 75.7258C25.8591 75.4119 24.9868 73.1461 26.33 72.5437C23.8457 73.2743 21.9481 75.6078 21.772 78.1553C21.6026 80.6266 22.8893 82.9669 23.3105 85.415C24.0637 89.7884 21.5602 94.3549 17.6904 96.4987C18.6339 97.2772 19.6289 97.991 20.6687 98.6352C33.1341 106.333 49.5008 102.708 57.2257 90.5399C64.9507 78.3716 61.1057 62.2679 48.6421 54.5673Z" fill="#E08B46"/>
<path d="M50.8153 56.0609C50.5765 57.346 49.9515 58.5599 48.9804 59.4485C47.8483 60.4863 46.3696 61.0695 45.0671 61.8938C43.7645 62.7182 42.5518 63.9541 42.4902 65.4802C42.4134 67.3682 44.0813 68.8978 44.5397 70.7378C44.9773 72.4943 44.223 74.3874 42.9255 75.6538C41.6281 76.9202 39.8609 77.6299 38.0699 78.0201C36.6251 78.3346 35.1289 78.4627 33.7406 78.9607C30.5895 80.0899 28.3175 83.2325 28.2639 86.5354C28.2419 87.9091 28.5671 89.2664 28.6862 90.6367C29.008 94.3343 27.7298 98.1138 25.2715 100.901C36.9131 105.339 50.4218 101.255 57.2281 90.5362C64.4816 79.1081 61.5304 64.207 50.8153 56.0609Z" fill="#CD6145"/>
<path d="M55.3302 60.4283C55.6283 61.4023 55.9185 62.3779 56.0896 63.3773C56.4848 65.6922 56.0331 68.4107 54.044 69.6862C52.8527 70.4506 51.3085 70.5641 50.1482 71.3721C48.0406 72.84 48.0389 76.0397 49.2449 78.3077C49.8134 79.3804 50.5999 80.3617 50.9263 81.5259C51.2396 82.6399 51.1007 83.8301 50.7812 84.9367C49.9055 87.9647 47.6318 90.563 44.7179 91.8661C41.3201 93.3854 37.3255 93.1557 33.8724 94.5502C30.7597 95.807 28.3082 98.446 27.166 101.543C38.3486 104.881 50.7902 100.681 57.2289 90.5387C63.3261 80.9291 62.2071 68.8686 55.3302 60.4283Z" fill="#BD5A46"/>
<path opacity="0.19" d="M9.22949 72.2543C9.22949 72.2543 12.865 48.0497 40.4877 51.9122C40.4877 51.9122 16.0104 50.4273 9.22949 72.2543Z" fill="white"/>
<path d="M32.6329 83.7958C34.7508 84.6387 35.7868 87.0016 34.9478 89.0731C34.1088 91.1447 31.7115 92.1401 29.5942 91.2971C27.477 90.4542 26.4404 88.0913 27.2794 86.0198C28.1184 83.9482 30.5157 82.9528 32.6329 83.7958Z" fill="#F6D49B"/>
<path d="M38.306 60.0241C40.4239 60.867 41.4605 63.2299 40.6209 65.3014C39.7813 67.373 37.3846 68.3684 35.2673 67.5248C33.15 66.6813 32.1129 64.3196 32.9524 62.2475C33.792 60.1754 36.1888 59.1806 38.306 60.0241Z" fill="#F6D49B"/>
<path d="M47.0598 83.2344L46.8108 83.4263C46.333 83.8696 45.8784 84.3373 45.449 84.8277C44.9149 85.438 44.409 86.1065 44.2125 86.8896C44.016 87.6727 44.1939 88.5964 44.8369 89.1068C45.0188 89.2513 45.2514 89.362 45.4795 89.3185C45.6182 89.2833 45.7477 89.2184 45.8589 89.1283C47.3725 88.0464 48.4747 86.4834 48.9857 84.6944C49.1454 84.1264 49.2426 83.5296 49.1483 82.9442C49.115 82.7369 49.0512 82.5218 48.8948 82.3795C48.5238 82.0357 47.4906 82.9752 47.0598 83.2344Z" fill="#EDB557"/>
<path d="M41.0515 92.4173C39.3577 92.2993 37.7316 92.9746 36.1885 93.6532C35.4133 93.992 34.5941 94.3776 34.156 95.0907C34.0769 95.2189 34.0103 95.3668 34.0374 95.5153C34.1119 95.9201 34.8425 96.0088 35.3603 96.0799L36.0468 96.1313C37.1995 96.2252 38.3579 96.2226 39.5101 96.1234C40.3006 96.0551 41.095 95.9399 41.8301 95.6502C42.5076 95.3832 43.1851 94.8694 43.2309 94.1523C43.263 93.6442 42.9486 93.1541 42.524 92.8622C42.0994 92.5703 41.5704 92.4523 41.0515 92.4173Z" fill="#E08B46"/>
<path d="M11.8005 71.509C11.1868 72.6078 11.1461 73.921 11.1337 75.179C11.1281 75.8113 11.1377 76.4866 11.4968 77.0145C11.5611 77.1093 11.6436 77.2025 11.7554 77.2324C12.0608 77.3143 12.3521 76.853 12.5633 76.5278L12.8146 76.084C13.242 75.3407 13.6041 74.5616 13.8969 73.7556C14.0973 73.2028 14.2667 72.6315 14.2955 72.0432C14.3226 71.5017 14.1775 70.8784 13.6925 70.6136C13.3492 70.4261 12.9094 70.4752 12.5718 70.6666C12.2341 70.858 11.9857 71.1737 11.8005 71.509Z" fill="#EDB557"/>
<path d="M54.9998 69.6763C54.8959 68.1214 54.0513 66.7132 53.2151 65.3825C52.795 64.7134 52.3287 64.0099 51.5986 63.6886C51.4677 63.6322 51.3197 63.5864 51.1831 63.6271C50.8099 63.74 50.8189 64.4147 50.8184 64.8941L50.8568 65.5247C50.9146 66.5869 51.064 67.6421 51.3034 68.6786C51.4682 69.3911 51.6783 70.102 52.0447 70.7394C52.3834 71.3272 52.9543 71.8884 53.6374 71.8511C54.1207 71.8246 54.5453 71.487 54.7666 71.0658C54.988 70.6446 55.0309 70.1511 54.9998 69.6763Z" fill="#E08B46"/>
<path d="M25.3411 62.512C26.2371 62.276 26.9547 61.6396 27.6283 61.0163C27.9671 60.703 28.3199 60.3602 28.4187 59.9125C28.4431 59.8329 28.4373 59.747 28.4024 59.6714C28.2894 59.4738 27.897 59.5557 27.617 59.6105L27.2528 59.7042C26.6408 59.8569 26.0428 60.0613 25.4653 60.3151C25.0701 60.489 24.6799 60.6888 24.353 60.9678C24.0521 61.2258 23.7952 61.612 23.9013 61.9925C23.977 62.2618 24.2277 62.4623 24.5009 62.5385C24.7742 62.6147 25.0672 62.5837 25.3411 62.512Z" fill="#E08B46"/>
<path d="M47.951 91.3578C48.3034 92.0269 48.012 92.8586 47.3006 93.2148C46.5892 93.5711 45.7265 93.317 45.3742 92.6502C45.0219 91.9834 45.3132 91.1489 46.0246 90.7927C46.736 90.4364 47.5999 90.6882 47.951 91.3578Z" fill="#E08B46"/>
<path d="M33.2221 54.34C33.575 55.0096 33.2836 55.8413 32.5722 56.1976C31.8608 56.5538 30.9981 56.3003 30.6458 55.6329C30.2935 54.9656 30.5843 54.1294 31.2951 53.7731C32.0059 53.4169 32.8703 53.6709 33.2221 54.34Z" fill="#E08B46"/>
<path d="M56.9135 73.0947C57.2658 73.7638 56.9751 74.596 56.2631 74.9523C55.5511 75.3085 54.689 75.0545 54.3372 74.3877C53.9855 73.7209 54.274 72.8824 54.9871 72.5279C55.7002 72.1733 56.5612 72.4251 56.9135 73.0947Z" fill="#E08B46"/>
<path d="M44.5129 91.0322C44.5496 91.3608 44.2131 91.6635 43.762 91.7069C43.3109 91.7504 42.9151 91.5206 42.8795 91.192C42.844 90.8634 43.1793 90.5608 43.6305 90.5145C44.0816 90.4682 44.4762 90.7036 44.5129 91.0322Z" fill="#E08B46"/>
<path d="M53.0735 73.532C53.1096 73.8612 52.7737 74.1633 52.3226 74.2096C51.8714 74.2558 51.4757 74.0227 51.4401 73.6946C51.4045 73.3666 51.7399 73.0634 52.1904 73.0171C52.641 72.9708 53.0368 73.2034 53.0735 73.532Z" fill="#E08B46"/>
<path d="M12.0021 80.0067C12.2279 80.4358 12.041 80.9665 11.5854 81.1963C11.1298 81.4261 10.5776 81.2618 10.3517 80.8327C10.1259 80.4036 10.3128 79.8729 10.7684 79.6436C11.224 79.4144 11.7762 79.5776 12.0021 80.0067Z" fill="#F0CB7D"/>
<path d="M28.0767 56.1137C28.3929 56.7139 28.1331 57.4592 27.4935 57.7793C26.8538 58.0995 26.0819 57.8708 25.7669 57.2712C25.4518 56.6716 25.7104 55.9252 26.3496 55.6062C26.9887 55.2872 27.7633 55.5108 28.0767 56.1137Z" fill="#F0CB7D"/>
<path d="M10.8557 77.9899C11.0149 78.2914 10.8834 78.6675 10.5632 78.8267C10.2431 78.9859 9.85352 78.873 9.69486 78.5715C9.65837 78.4974 9.63699 78.4169 9.632 78.3345C9.627 78.2521 9.63848 78.1695 9.66576 78.0916C9.69305 78.0137 9.73559 77.942 9.7909 77.8807C9.84621 77.8195 9.91318 77.7698 9.98789 77.7347C10.308 77.5738 10.6965 77.6884 10.8557 77.9899Z" fill="#F0CB7D"/>
<path d="M25.4644 57.8959C25.4975 57.9626 25.517 58.0352 25.5217 58.1095C25.5263 58.1838 25.516 58.2583 25.4914 58.3286C25.4667 58.3988 25.4283 58.4634 25.3783 58.5186C25.3282 58.5737 25.2677 58.6183 25.2001 58.6497C25.0655 58.7202 24.9086 58.7357 24.7628 58.6927C24.617 58.6497 24.4936 58.5516 24.4187 58.4193C24.3855 58.3526 24.3661 58.28 24.3614 58.2057C24.3568 58.1314 24.3671 58.0569 24.3917 57.9866C24.4164 57.9164 24.4548 57.8518 24.5048 57.7966C24.5549 57.7415 24.6154 57.6969 24.683 57.6655C24.8176 57.5947 24.9745 57.5791 25.1204 57.6221C25.2663 57.6651 25.3897 57.7634 25.4644 57.8959Z" fill="#F0CB7D"/>
<path opacity="0.68" d="M55.1914 88.4268C46.2464 100.833 28.712 103.745 15.9785 94.9582C17.4009 96.3538 18.9742 97.5867 20.6693 98.6343C33.1346 106.332 49.5014 102.707 57.2263 90.539C61.3372 84.063 62.1711 76.4725 60.1735 69.6272C60.9036 76.2949 59.1278 82.9958 55.1914 88.4268Z" fill="url(#paint0_linear_461_81)" style="mix-blend-mode:multiply"/>
<path opacity="0.68" d="M51.5151 82.0888C43.7908 94.2566 27.4234 97.8814 14.9581 90.1836C13.2133 89.1053 11.5976 87.831 10.1426 86.3855C12.1977 91.2682 15.7621 95.6032 20.6685 98.6334C33.1338 106.331 49.5006 102.707 57.2255 90.5381C63.8421 80.1144 61.9648 66.8078 53.4573 58.3658C56.6225 65.8869 56.1991 74.71 51.5151 82.0888Z" fill="url(#paint1_linear_461_81)" style="mix-blend-mode:multiply"/>
<path opacity="0.38" d="M56.8146 89.2417C50.3905 99.3622 38.3407 103.924 27.0537 101.511C38.2645 104.909 50.7671 100.713 57.2256 90.538C60.3705 85.6034 61.716 79.7346 61.035 73.9229C61.1967 79.3369 59.7262 84.6744 56.8146 89.2417Z" fill="#E08B46"/>
<path d="M23.1943 68.0702C23.1103 68.027 23.0373 67.9651 22.981 67.8892C22.9247 67.8133 22.8866 67.7255 22.8696 67.6326C22.8392 67.4681 22.8741 67.2981 22.967 67.159C23.0599 67.0198 23.2034 66.9223 23.367 66.8873C26.364 66.2663 28.3655 67.2092 29.5681 68.2012C27.8991 63.5787 22.882 64.5182 22.6562 64.564C22.576 64.58 22.4934 64.5799 22.4133 64.5636C22.3331 64.5473 22.257 64.5151 22.1895 64.469C22.122 64.4229 22.0643 64.3637 22.02 64.295C21.9756 64.2263 21.9455 64.1494 21.9313 64.0688C21.9014 63.9044 21.9368 63.7349 22.03 63.5962C22.1232 63.4575 22.2669 63.3607 22.4304 63.3264C22.5021 63.3111 29.6375 61.9431 31.1021 69.0419C31.1443 69.2497 31.1171 69.4656 31.0248 69.6565C30.9325 69.8474 30.7802 70.0027 30.5912 70.0988C30.4078 70.1962 30.1965 70.2275 29.9928 70.1874C29.7891 70.1473 29.6054 70.0382 29.4727 69.8786C28.4987 68.724 26.688 67.483 23.6008 68.1238C23.4632 68.1535 23.3195 68.1346 23.1943 68.0702Z" fill="#111214"/>
<path d="M42.8592 85.2816L21.4736 77.533C21.4736 77.533 22.5565 98.2381 42.8592 85.2816Z" fill="#16181D"/>
<path d="M35.149 87.7279C34.0565 86.6754 32.8951 85.6665 31.5355 85.0076C29.0309 83.796 26.1153 83.8897 23.3408 84.3606C25.1922 87.9492 28.8581 91.1358 36.093 88.6747C35.7825 88.3523 35.4685 88.0361 35.149 87.7279Z" fill="#A44E46"/>
<path opacity="0.68" d="M31.5335 85.0076C29.029 83.796 26.1133 83.8897 23.3389 84.3606C24.6296 86.8618 26.8027 89.1659 30.4529 89.4985C29.2209 88.9051 27.4667 87.7482 26.635 85.7455C26.635 85.7455 31.5589 85.4824 35.7144 88.7944C35.8409 88.7543 35.9651 88.7165 36.0938 88.6725C35.785 88.3506 35.4728 88.0339 35.1515 87.7256C34.0562 86.6754 32.8948 85.6665 31.5335 85.0076Z" fill="url(#paint2_linear_461_81)" style="mix-blend-mode:multiply"/>
<path d="M39.8111 84.1768L24.2534 78.5398L24.1196 78.9102C24.0562 79.0798 24.0268 79.2602 24.0331 79.4412C24.0394 79.6222 24.0812 79.8001 24.1563 79.9649C24.2314 80.1297 24.3382 80.2781 24.4706 80.4016C24.6031 80.5251 24.7585 80.6213 24.9281 80.6847L37.9197 85.3918C38.0907 85.4517 38.2718 85.4774 38.4528 85.4672C38.6337 85.4571 38.8108 85.4114 38.974 85.3327C39.1373 85.254 39.2834 85.144 39.4041 85.0088C39.5248 84.8736 39.6176 84.716 39.6773 84.5449L39.8111 84.1768Z" fill="#FDF8F9"/>
<path opacity="0.5" d="M29.8833 57.2277C29.8833 57.2277 29.9815 57.5032 29.9397 57.9679C29.9341 58.03 29.9262 58.0949 29.9149 58.1632C29.9149 58.1632 29.9149 58.1689 29.9149 58.1717C29.903 58.2394 29.8889 58.31 29.8714 58.384L29.8646 58.4071C29.8494 58.4687 29.8308 58.5325 29.8082 58.598C29.802 58.6166 29.7963 58.6352 29.7895 58.6544C29.7641 58.7301 29.7359 58.8074 29.7026 58.8876C29.7026 58.8876 26.3714 58.297 23.165 60.3731C23.1645 60.3731 25.3935 57.2429 29.8833 57.2277Z" fill="url(#paint3_linear_461_81)" style="mix-blend-mode:multiply"/>
<path d="M29.4746 58.7226C29.4746 58.7226 26.1435 58.1326 22.9365 60.2086C22.9365 60.2086 25.165 57.0762 29.6553 57.0632C29.6576 57.0632 29.8924 57.7204 29.4746 58.7226Z" fill="#34404E"/>
<path d="M29.7141 57.8029C29.6824 58.1197 29.6026 58.4298 29.4776 58.7226C29.4776 58.7226 26.1464 58.1326 22.9395 60.2087C25.9595 57.3495 29.3714 57.7543 29.7141 57.8029Z" fill="url(#paint4_linear_461_81)" style="mix-blend-mode:multiply"/>
<path d="M39.796 70.0138C38.2715 72.6843 39.0456 75.9986 41.5276 77.4208C44.0096 78.843 47.2584 77.8267 48.7845 75.1562C50.3106 72.4856 49.5348 69.1714 47.0528 67.7486C44.5708 66.3258 41.3221 67.3432 39.796 70.0138Z" fill="#111214"/>
<path opacity="0.68" d="M39.4102 70.4701C37.8163 73.2604 38.5221 76.6649 40.986 78.0764C43.4499 79.4879 46.7405 78.3672 48.3343 75.5769C49.9282 72.7867 49.223 69.3815 46.7585 67.97C44.294 66.5585 41.0063 67.6804 39.4102 70.4701Z" fill="url(#paint5_linear_461_81)" style="mix-blend-mode:multiply"/>
<path d="M39.82 70.3659C38.3046 73.0195 38.9731 76.2547 41.3179 77.5928C43.6627 78.9309 46.7873 77.8695 48.3021 75.217C49.8169 72.5645 49.149 69.3287 46.8042 67.99C44.4594 66.6514 41.3326 67.7134 39.82 70.3659Z" fill="url(#paint6_linear_461_81)" style="mix-blend-mode:multiply"/>
<path d="M40.0047 70.8108C38.5045 73.4368 39.1685 76.642 41.4879 77.9688C43.8073 79.2957 46.9041 78.2421 48.4043 75.6161C49.9044 72.9901 49.2399 69.7855 46.9205 68.4581C44.6011 67.1307 41.5048 68.1848 40.0047 70.8108Z" fill="#FDF8F9"/>
<path d="M41.9932 71.9223C41.4574 72.8601 41.6742 73.9932 42.4782 74.4528C43.2822 74.9124 44.3674 74.5251 44.906 73.5873C45.4447 72.6495 45.2245 71.5163 44.4205 71.0567C43.6165 70.5971 42.5302 70.9816 41.9932 71.9223Z" fill="#111214"/>
<path d="M44.6075 72.6565C44.4269 72.9727 44.4664 73.3341 44.6956 73.4673C44.9248 73.6006 45.2602 73.4493 45.4392 73.1325C45.6182 72.8158 45.5803 72.455 45.3505 72.3212C45.1208 72.1874 44.7888 72.3381 44.6075 72.6565Z" fill="#FDF8F9"/>
<path opacity="0.38" d="M46.8395 68.4146C45.5641 68.3186 44.2135 69.0458 43.4598 70.3647C42.4593 72.115 42.8901 74.2453 44.4196 75.121C45.9491 75.9967 48.002 75.2903 49.0025 73.5367C49.0674 73.4238 49.1256 73.3075 49.1787 73.1917C49.0949 74.0458 48.8302 74.8722 48.4023 75.6161C46.9022 78.2421 43.8053 79.2956 41.4859 77.9688C39.1665 76.642 38.5026 73.4367 40.0027 70.8108C41.4876 68.2153 44.5297 67.1578 46.8395 68.4146Z" fill="url(#paint7_linear_461_81)" style="mix-blend-mode:multiply"/>
<path opacity="0.45" d="M41.4579 77.5492C43.2082 78.6727 45.4768 78.4254 47.209 77.1099C45.5795 78.5897 43.2985 79.0042 41.4884 77.9687C39.4976 76.8299 38.7281 74.3078 39.4982 71.9551C38.9517 74.1361 39.6659 76.3957 41.4579 77.5492Z" fill="#FDF8F9"/>
<path opacity="0.32" d="M39.7485 74.4565C39.832 74.6823 39.9602 74.8404 40.0353 74.811C40.1104 74.7817 40.1025 74.5762 40.0189 74.3503C39.9354 74.1245 39.8066 73.967 39.7321 73.9963C39.6576 74.0257 39.6649 74.2318 39.7485 74.4565Z" fill="#FDF8F9"/>
<path opacity="0.39" d="M46.6992 65.8671C46.6992 65.8598 46.6992 65.8485 46.6964 65.8355V65.8248C46.6964 65.8078 46.6964 65.7881 46.6964 65.7649C46.6958 65.7019 46.6986 65.639 46.7048 65.5763C46.7051 65.5733 46.7051 65.5703 46.7048 65.5673C46.7082 65.5329 46.7133 65.4962 46.7189 65.4578C46.7189 65.4527 46.7189 65.4482 46.7218 65.4425C46.7372 65.3454 46.7591 65.2494 46.7873 65.1551C46.8796 64.8515 47.0272 64.5674 47.2226 64.3173C47.2226 64.3173 50.6102 65.5137 51.592 69.8092C51.592 69.8092 50.1467 66.8518 46.7014 65.8829C46.7014 65.8829 46.7014 65.8784 46.7014 65.8716L46.6992 65.8671Z" fill="url(#paint8_linear_461_81)" style="mix-blend-mode:multiply"/>
<path d="M51.9314 69.525C51.9314 69.525 50.4866 66.5676 47.0408 65.5987C47.0408 65.5987 46.9358 64.8472 47.5619 64.0331C47.5619 64.0325 50.949 65.2295 51.9314 69.525Z" fill="#34404E"/>
<path d="M47.0409 65.5989C47.0216 65.3532 47.0508 65.1061 47.1268 64.8717C50.8532 65.5876 51.9315 69.5257 51.9315 69.5257C51.9315 69.5257 50.4867 66.5678 47.0409 65.5989Z" fill="url(#paint9_linear_461_81)" style="mix-blend-mode:multiply"/>
<defs>
<linearGradient id="paint0_linear_461_81" x1="34.7707" y1="103.424" x2="43.7655" y2="65.7256" gradientUnits="userSpaceOnUse">
<stop stop-color="#8A4946"/>
<stop offset="1" stop-color="#EDECEC"/>
</linearGradient>
<linearGradient id="paint1_linear_461_81" x1="52449.8" y1="-238929" x2="95999.7" y2="-238929" gradientUnits="userSpaceOnUse">
<stop stop-color="#8A4946"/>
<stop offset="1" stop-color="#EDECEC"/>
</linearGradient>
<linearGradient id="paint2_linear_461_81" x1="12008.4" y1="15685.9" x2="14866.4" y2="16719.6" gradientUnits="userSpaceOnUse">
<stop stop-color="#8A4946"/>
<stop offset="1" stop-color="#EDECEC"/>
</linearGradient>
<linearGradient id="paint3_linear_461_81" x1="27.2432" y1="59.8937" x2="27.4328" y2="55.9467" gradientUnits="userSpaceOnUse">
<stop stop-color="#4D4D4D"/>
<stop offset="1" stop-color="#EDECEC"/>
</linearGradient>
<linearGradient id="paint4_linear_461_81" x1="-37240" y1="3197.11" x2="-37238.5" y2="3061.64" gradientUnits="userSpaceOnUse">
<stop stop-color="#4D4D4D"/>
<stop offset="1" stop-color="#EDECEC"/>
</linearGradient>
<linearGradient id="paint5_linear_461_81" x1="5933.96" y1="4750.84" x2="7935.17" y2="4750.84" gradientUnits="userSpaceOnUse">
<stop stop-color="#8A4946"/>
<stop offset="1" stop-color="#EDECEC"/>
</linearGradient>
<linearGradient id="paint6_linear_461_81" x1="61962.8" y1="56233" x2="60430.2" y2="57228.9" gradientUnits="userSpaceOnUse">
<stop stop-color="#4D4D4D"/>
<stop offset="1" stop-color="#EDECEC"/>
</linearGradient>
<linearGradient id="paint7_linear_461_81" x1="59593.8" y1="56891.4" x2="60814.9" y2="55960" gradientUnits="userSpaceOnUse">
<stop stop-color="#4D4D4D"/>
<stop offset="1" stop-color="#EDECEC"/>
</linearGradient>
<linearGradient id="paint8_linear_461_81" x1="24091" y1="20902.9" x2="24287.6" y2="20279.6" gradientUnits="userSpaceOnUse">
<stop stop-color="#4D4D4D"/>
<stop offset="1" stop-color="#EDECEC"/>
</linearGradient>
<linearGradient id="paint9_linear_461_81" x1="24649.9" y1="18745.4" x2="24774.9" y2="18335.4" gradientUnits="userSpaceOnUse">
<stop stop-color="#4D4D4D"/>
<stop offset="1" stop-color="#EDECEC"/>
</linearGradient>
</defs>
</svg>
