<svg width="89" height="100" viewBox="0 0 89 100" fill="none" xmlns="http://www.w3.org/2000/svg">
<rect width="89" height="43" rx="21.5" fill="white" fill-opacity="0.2"/>
<path d="M22.36 28C23.02 28.144 23.563 28.159 23.989 28.045C24.415 27.931 24.76 27.712 25.024 27.388C25.288 27.064 25.498 26.656 25.654 26.164C25.81 25.672 25.942 25.12 26.05 24.508C26.224 23.554 26.362 22.612 26.464 21.682C26.566 20.746 26.647 19.861 26.707 19.027C26.767 18.193 26.818 17.455 26.86 16.813H31.72V28H33.601V15.04H25.096C25.06 15.844 25.012 16.738 24.952 17.722C24.892 18.7 24.808 19.708 24.7 20.746C24.592 21.778 24.451 22.777 24.277 23.743C24.151 24.499 24.016 25.075 23.872 25.471C23.734 25.861 23.548 26.122 23.314 26.254C23.086 26.38 22.768 26.425 22.36 26.389V28ZM37.4412 32.32H39.2322L44.5962 18.28H42.6882L39.9432 25.588L37.0722 18.28H35.1102L39.0432 27.955L37.4412 32.32ZM45.9971 28H47.8781V24.022H52.6211V28H54.5021V18.28H52.6211V22.249H47.8781V18.28H45.9971V28ZM59.7726 28.27C61.3206 28.27 62.4876 27.709 63.2736 26.587V28H64.9386V22.015C64.9386 21.607 64.9206 21.226 64.8846 20.872C64.8486 20.518 64.7526 20.182 64.5966 19.864C64.2966 19.222 63.8226 18.754 63.1746 18.46C62.5326 18.16 61.7766 18.01 60.9066 18.01C59.7846 18.01 58.8846 18.256 58.2066 18.748C57.5286 19.24 57.0726 19.903 56.8386 20.737L58.5936 21.277C58.7616 20.737 59.0586 20.347 59.4846 20.107C59.9106 19.867 60.3786 19.747 60.8886 19.747C61.6446 19.747 62.1906 19.909 62.5266 20.233C62.8686 20.551 63.0546 21.046 63.0846 21.718C62.2926 21.826 61.5186 21.94 60.7626 22.06C60.0066 22.174 59.3466 22.312 58.7826 22.474C58.0326 22.714 57.4626 23.071 57.0726 23.545C56.6826 24.019 56.4876 24.622 56.4876 25.354C56.4876 25.882 56.6106 26.368 56.8566 26.812C57.1086 27.25 57.4776 27.604 57.9636 27.874C58.4556 28.138 59.0586 28.27 59.7726 28.27ZM60.1056 26.731C59.5056 26.731 59.0616 26.593 58.7736 26.317C58.4916 26.041 58.3506 25.714 58.3506 25.336C58.3506 24.952 58.4766 24.649 58.7286 24.427C58.9866 24.205 59.3076 24.028 59.6916 23.896C60.0996 23.776 60.5796 23.671 61.1316 23.581C61.6896 23.491 62.3346 23.392 63.0666 23.284C63.0606 23.512 63.0456 23.767 63.0216 24.049C62.9976 24.331 62.9466 24.583 62.8686 24.805C62.7966 25.123 62.6436 25.429 62.4096 25.723C62.1816 26.017 61.8726 26.26 61.4826 26.452C61.0986 26.638 60.6396 26.731 60.1056 26.731Z" fill="white"/>
<line x1="44.4353" y1="43.246" x2="31.4353" y2="66.246" stroke="white"/>
<path d="M48.6884 75.0003C48.6884 86.0464 39.9158 95 29.0945 95C18.2732 95 9.5 86.0459 9.5 75.0003C9.5 63.9547 18.2721 55 29.0945 55C39.9169 55 48.6884 63.9547 48.6884 75.0003Z" fill="white"/>
<path d="M47.0903 79.1703C44.9036 89.3221 35.0675 95.7469 25.1203 93.5123C15.1732 91.2777 8.88307 81.2403 11.0698 71.0875C13.2564 60.9346 23.0926 54.5138 33.0397 56.7472C42.9869 58.9807 49.277 69.0175 47.0903 79.1703Z" fill="#AEB0B3"/>
<path d="M18.5057 86.6585C17.7731 86.4669 17.3718 85.7703 17.6113 85.1025C17.8508 84.4346 18.6393 84.048 19.3725 84.2396C20.1057 84.4312 20.5064 85.1284 20.2669 85.7962C20.0274 86.4641 19.2389 86.8501 18.5057 86.6585Z" fill="#434344"/>
<path opacity="0.41" d="M20.2672 85.7961C20.3231 85.6437 20.3455 85.4809 20.3328 85.319C20.3202 85.1571 20.2728 84.9998 20.1939 84.8578C20.1968 84.9987 20.1739 85.1389 20.1263 85.2715C19.8867 85.9393 19.0983 86.3253 18.3651 86.1337C18.1931 86.0919 18.0316 86.0153 17.8904 85.9087C17.7491 85.8021 17.6313 85.6677 17.5439 85.5138C17.5535 86.0351 17.9244 86.5046 18.506 86.6567C19.2392 86.85 20.0276 86.464 20.2672 85.7961Z" fill="url(#paint0_linear_461_75)" style="mix-blend-mode:multiply"/>
<path d="M18.6736 65.3056C19.191 66.2045 18.4533 67.6275 17.0252 68.4842C15.597 69.3408 14.0202 69.3064 13.5017 68.4075C12.9832 67.5086 13.722 66.0861 15.1501 65.2295C16.5782 64.3729 18.1563 64.4072 18.6736 65.3056Z" fill="#434344"/>
<path opacity="0.41" d="M15.1506 65.2295C14.1395 65.8353 13.4773 66.7252 13.3584 67.5114C13.6588 66.9422 14.1959 66.3792 14.9026 65.9554C16.3301 65.0987 17.907 65.1331 18.425 66.032C18.576 66.2947 18.6172 66.6024 18.5681 66.927C18.8747 66.3459 18.9344 65.7587 18.6729 65.3045C18.1556 64.4072 16.5787 64.3729 15.1506 65.2295Z" fill="url(#paint1_linear_461_75)" style="mix-blend-mode:multiply"/>
<path d="M20.4438 63.0722C20.6895 63.4983 20.5357 64.0551 20.1006 64.316C20.0005 64.3787 19.8888 64.4207 19.7722 64.4396C19.6557 64.4586 19.5365 64.454 19.4217 64.4261C19.3069 64.3983 19.1988 64.3478 19.1039 64.2776C19.0089 64.2074 18.9289 64.1189 18.8686 64.0173C18.6234 63.5913 18.7773 63.0345 19.2124 62.7735C19.3124 62.7108 19.424 62.6687 19.5406 62.6498C19.6571 62.6308 19.7763 62.6354 19.8911 62.6632C20.0058 62.6911 20.1139 62.7416 20.2088 62.8118C20.3037 62.8821 20.3836 62.9706 20.4438 63.0722Z" fill="#434344"/>
<path opacity="0.41" d="M19.2131 62.7729C19.0086 62.8955 18.8579 63.0907 18.791 63.3196C18.8572 63.2417 18.9356 63.175 19.0232 63.1224C19.1744 63.0254 19.3518 62.9773 19.5313 62.9845C19.7107 62.9917 19.8837 63.0538 20.0267 63.1625C20.1696 63.2713 20.2758 63.4213 20.3307 63.5923C20.3855 63.7634 20.3865 63.9471 20.3335 64.1188C20.4583 63.9774 20.5361 63.8008 20.5563 63.6134C20.5765 63.426 20.538 63.2369 20.4462 63.0722C20.3861 62.9704 20.3061 62.8816 20.211 62.8112C20.116 62.7408 20.0078 62.6902 19.8929 62.6623C19.7779 62.6344 19.6585 62.6298 19.5418 62.6488C19.4251 62.6678 19.3133 62.71 19.2131 62.7729Z" fill="url(#paint2_linear_461_75)" style="mix-blend-mode:multiply"/>
<path d="M20.8005 65.017C21.2514 64.968 21.6143 65.2492 21.616 65.6449C21.6177 66.0405 21.2559 66.4012 20.8073 66.4502C20.3587 66.4992 19.9935 66.218 19.9912 65.8224C19.989 65.4267 20.3519 65.0661 20.8005 65.017Z" fill="#434344"/>
<path opacity="0.41" d="M19.9912 65.8208C19.9914 65.9121 20.0124 66.0021 20.0525 66.0842C20.0926 66.1662 20.1509 66.238 20.2228 66.2942C20.1929 66.2216 20.1773 66.1439 20.1766 66.0654C20.1766 65.6709 20.5373 65.3091 20.9859 65.2595C21.1934 65.2321 21.4033 65.2878 21.5698 65.4144C21.4571 65.1456 21.1561 64.9765 20.8005 65.0154C20.3519 65.0662 19.9895 65.4263 19.9912 65.8208Z" fill="url(#paint3_linear_461_75)" style="mix-blend-mode:multiply"/>
<path d="M32.5003 88.4315C31.682 86.7542 33.1766 84.2965 35.8423 82.9422C38.508 81.5879 41.3299 81.8489 42.1482 83.5261C42.9665 85.2033 41.4719 87.6605 38.8056 89.0153C36.1393 90.3702 33.3186 90.1109 32.5003 88.4315Z" fill="#434344"/>
<path opacity="0.41" d="M38.8064 89.0154C40.6927 88.0574 41.9884 86.5453 42.2972 85.1493C41.6891 86.1316 40.6583 87.0722 39.3396 87.7418C36.6755 89.0943 33.852 88.8351 33.0337 87.1579C32.7947 86.6681 32.7586 86.1113 32.8855 85.5353C32.2655 86.5374 32.0874 87.5834 32.5011 88.4304C33.3188 90.111 36.1418 90.3697 38.8064 89.0154Z" fill="url(#paint4_linear_461_75)" style="mix-blend-mode:multiply"/>
<path d="M29.052 92.2114C28.6643 91.4168 29.0081 90.4378 29.8196 90.0253C30.6312 89.6127 31.6039 89.9221 31.9911 90.7168C32.3783 91.5114 32.0356 92.4909 31.2241 92.9035C30.4125 93.316 29.4398 93.0066 29.052 92.2114Z" fill="#434344"/>
<path opacity="0.41" d="M31.2247 92.9033C31.6063 92.7101 31.9006 92.3795 32.0481 91.9779C31.9198 92.1088 31.7711 92.2181 31.6079 92.3014C30.7964 92.714 29.8242 92.4046 29.4359 91.6094C29.3416 91.414 29.2879 91.2015 29.2783 90.9848C29.2686 90.7681 29.303 90.5516 29.3795 90.3486C28.8988 90.8361 28.7449 91.5812 29.0532 92.2084C29.4404 93.0065 30.4131 93.3159 31.2247 92.9033Z" fill="url(#paint5_linear_461_75)" style="mix-blend-mode:multiply"/>
<path d="M28.6513 88.6795C27.8414 88.7105 27.2209 88.1599 27.2649 87.4503C27.3089 86.7408 28.0032 86.1394 28.8136 86.1084C29.624 86.0774 30.2451 86.628 30.2 87.3382C30.1549 88.0483 29.4623 88.6485 28.6513 88.6795Z" fill="#434344"/>
<path opacity="0.41" d="M30.1996 87.338C30.2109 87.1744 30.1848 87.0103 30.1234 86.8582C30.062 86.7061 29.9669 86.5699 29.8451 86.46C29.8909 86.5936 29.91 86.7349 29.9015 86.8759C29.8569 87.586 29.1637 88.1868 28.3527 88.2178C27.977 88.2407 27.6073 88.1143 27.3242 87.8661C27.4933 88.362 28.0135 88.7041 28.6554 88.6793C29.4619 88.6483 30.1551 88.0476 30.1996 87.338Z" fill="url(#paint6_linear_461_75)" style="mix-blend-mode:multiply"/>
<path d="M13.7873 78.6263C12.783 78.083 11.7499 77.7759 10.8076 77.6947C11.1866 80.4998 12.1848 83.1855 13.7298 85.5572C15.2193 85.6665 16.4699 85.2061 16.9923 84.2007C17.8518 82.5454 16.4175 80.0499 13.7873 78.6263Z" fill="#434344"/>
<path opacity="0.41" d="M13.3174 84.8961C13.4504 85.1215 13.5881 85.3419 13.7305 85.5572C14.5026 85.6136 15.2104 85.5155 15.7853 85.2681C15.0312 85.3132 14.183 85.1881 13.3174 84.8961Z" fill="url(#paint7_linear_461_75)" style="mix-blend-mode:multiply"/>
<path d="M16.2012 87.3912C15.9498 87.5193 15.7243 87.6928 15.5361 87.9029C16.4978 88.9686 17.5804 89.9187 18.7621 90.7338C19.3414 90.08 19.5122 89.1293 19.1177 88.3205C18.5969 87.2531 17.2911 86.8372 16.2012 87.3912Z" fill="#434344"/>
<path opacity="0.41" d="M18.4512 90.515C18.5537 90.5894 18.6574 90.6621 18.7617 90.7342C18.9489 90.5227 19.0952 90.2783 19.1934 90.0134C19.0207 90.189 18.8209 90.3357 18.6016 90.4479C18.5521 90.4733 18.5013 90.4942 18.4512 90.515Z" fill="url(#paint8_linear_461_75)" style="mix-blend-mode:multiply"/>
<path opacity="0.41" d="M15.573 87.9428C15.5849 87.9033 15.5956 87.8639 15.6097 87.8256C15.5849 87.8509 15.5618 87.878 15.5381 87.9039L15.573 87.9428Z" fill="url(#paint9_linear_461_75)" style="mix-blend-mode:multiply"/>
<path opacity="0.41" d="M30.033 85.6588C21.3736 83.7156 15.8968 74.9751 17.8034 66.1365C18.5136 62.7897 20.254 59.7493 22.7803 57.4421C17.0516 59.5753 12.4759 64.5568 11.0697 71.0875C8.88305 81.2404 15.1737 91.2805 25.1203 93.5123C35.0669 95.7441 44.9036 89.3221 47.0903 79.1703C47.1754 78.7758 47.243 78.3813 47.3028 77.9868C43.8706 83.9213 36.9842 87.2188 30.033 85.6588Z" fill="url(#paint10_linear_461_75)" style="mix-blend-mode:multiply"/>
<path opacity="0.41" d="M27.365 90.8436C17.4151 88.609 11.1244 78.5694 13.3105 68.4166C13.8305 65.9844 14.8237 63.6782 16.2338 61.6294C13.6271 64.2111 11.8321 67.4986 11.0697 71.0874C8.88305 81.2402 15.1737 91.2804 25.1203 93.5122C32.599 95.1905 40.014 91.9764 44.1631 85.9636C39.8686 90.2096 33.6382 92.2492 27.365 90.8436Z" fill="url(#paint11_linear_461_75)" style="mix-blend-mode:multiply"/>
<path opacity="0.22" d="M25.627 93.0291C15.5615 90.7703 9.1964 80.6112 11.4084 70.3372C11.6565 69.1866 12.0083 68.0608 12.4595 66.9738C11.8411 68.2877 11.3749 69.6681 11.0697 71.0879C8.88305 81.2408 15.1737 91.2809 25.1203 93.5127C30.7031 94.7655 36.2493 93.2912 40.4294 89.9621C36.2893 92.9576 30.972 94.2284 25.627 93.0291Z" fill="#434344"/>
<path d="M25.897 83.5424C26.1258 85.4118 27.4063 86.7858 28.7538 86.6167C30.1013 86.4476 31.0081 84.7885 30.7759 82.9191C30.5437 81.0497 29.2667 79.6746 27.9192 79.8476C26.5716 80.0206 25.6671 81.673 25.897 83.5424Z" fill="#4C3133"/>
<path opacity="0.68" d="M25.897 83.5424C26.1258 85.4118 27.4063 86.7858 28.7538 86.6167C30.1013 86.4476 31.0081 84.7885 30.7759 82.9191C30.5437 81.0497 29.2667 79.6746 27.9192 79.8476C26.5716 80.0206 25.6671 81.673 25.897 83.5424Z" fill="url(#paint12_linear_461_75)" style="mix-blend-mode:multiply"/>
<path d="M26.4326 85.1897C27.0571 83.8371 28.6176 82.6846 30.6183 82.1644C30.6912 82.4103 30.7438 82.6618 30.7756 82.9162C31.0061 84.7856 30.0993 86.4409 28.7534 86.6139C27.85 86.7294 26.9787 86.1478 26.4326 85.1897Z" fill="#A44E46"/>
<path d="M29.8058 80.6608C29.2907 80.9054 28.566 81.0705 27.7708 81.0942C27.3003 81.1113 26.8295 81.07 26.3691 80.9713C26.7355 80.3514 27.2754 79.9276 27.919 79.8442C28.6105 79.7557 29.2817 80.0792 29.8058 80.6608Z" fill="#FDF8F9"/>
<path d="M37.474 64.0653C37.1212 65.5306 34.9491 66.2447 32.6221 65.6613C30.2951 65.078 28.694 63.4172 29.0468 61.9524C29.3996 60.4877 31.571 59.7731 33.8986 60.3569C36.2262 60.9408 37.8262 62.6006 37.474 64.0653Z" fill="#434344"/>
<path opacity="0.41" d="M33.8983 60.357C32.251 59.9439 30.6859 60.1834 29.7842 60.8771C30.6589 60.5954 31.7719 60.566 32.9239 60.8552C35.2509 61.4385 36.8515 63.0988 36.4992 64.5635C36.3961 64.9913 36.134 65.3525 35.7621 65.6394C36.6542 65.3525 37.2972 64.8053 37.4753 64.0653C37.8259 62.6006 36.2253 60.9403 33.8983 60.357Z" fill="url(#paint13_linear_461_75)" style="mix-blend-mode:multiply"/>
<path d="M41.5181 63.5749C41.4761 63.7408 41.4016 63.8967 41.299 64.0337C41.1964 64.1707 41.0677 64.286 40.9203 64.373C40.773 64.4599 40.6098 64.5169 40.4403 64.5405C40.2708 64.5641 40.0983 64.5539 39.9328 64.5104C39.2238 64.3324 38.7842 63.6256 38.9516 62.9324C38.9932 62.7662 39.0675 62.61 39.1701 62.4727C39.2727 62.3355 39.4016 62.22 39.5492 62.133C39.6968 62.046 39.8603 61.9892 40.03 61.966C40.1998 61.9427 40.3725 61.9534 40.538 61.9975C41.2459 62.1739 41.6849 62.8811 41.5181 63.5749Z" fill="#434344"/>
<path opacity="0.41" d="M40.5379 61.9962C40.2072 61.9119 39.8566 61.9587 39.5596 62.127C39.7057 62.1149 39.8529 62.1267 39.9952 62.1619C40.7042 62.34 41.1432 63.0467 40.9764 63.7399C40.9357 63.9086 40.8606 64.0671 40.7559 64.2055C40.6512 64.3438 40.519 64.4591 40.3677 64.5441C40.6375 64.5248 40.8942 64.4205 41.101 64.2461C41.3078 64.0717 41.454 63.8363 41.5186 63.5737C41.6854 62.881 41.2464 62.1737 40.5379 61.9962Z" fill="url(#paint14_linear_461_75)" style="mix-blend-mode:multiply"/>
<path d="M39.9646 65.9577C40.478 66.3691 40.5783 67.0369 40.19 67.4489C39.8017 67.8609 39.0685 67.862 38.5557 67.4489C38.0428 67.0358 37.9414 66.3696 38.3302 65.9571C38.7191 65.5446 39.4506 65.5457 39.9646 65.9577Z" fill="#434344"/>
<path opacity="0.41" d="M38.3283 65.9587C38.238 66.0553 38.1708 66.1711 38.1318 66.2974C38.0927 66.4237 38.0828 66.5573 38.1029 66.688C38.143 66.5821 38.2038 66.4852 38.2815 66.4028C38.6704 65.9908 39.4025 65.9903 39.9159 66.4028C40.1585 66.5897 40.3199 66.8627 40.3668 67.1653C40.5172 66.7708 40.3707 66.2844 39.9638 65.9587C39.4504 65.5456 38.7183 65.5467 38.3283 65.9587Z" fill="url(#paint15_linear_461_75)" style="mix-blend-mode:multiply"/>
<path d="M46.1687 75.9651C45.5775 76.9565 44.2706 77.4011 43.2488 76.9587C42.2271 76.5163 41.8782 75.3514 42.4694 74.3601C43.0606 73.3687 44.3675 72.9241 45.3893 73.3659C46.4111 73.8078 46.7594 74.9704 46.1687 75.9651Z" fill="#434344"/>
<path opacity="0.41" d="M45.3884 73.3659C44.8828 73.1571 44.3185 73.1392 43.8008 73.3157C44.0289 73.3329 44.2526 73.3875 44.463 73.4774C45.4848 73.9199 45.8342 75.082 45.2435 76.0733C44.9399 76.5704 44.467 76.9412 43.9118 77.1176C44.7814 77.1886 45.7006 76.7479 46.1661 75.9623C46.7596 74.9704 46.4101 73.8083 45.3884 73.3659Z" fill="url(#paint16_linear_461_75)" style="mix-blend-mode:multiply"/>
<path d="M30.04 75.8396C30.634 78.6011 32.9143 80.3082 35.1336 79.6522C37.353 78.9962 38.6695 76.2262 38.0755 73.4647C37.4815 70.7031 35.2013 68.9955 32.9819 69.6515C30.7625 70.3075 29.446 73.0775 30.04 75.8396Z" fill="url(#paint17_linear_461_75)" style="mix-blend-mode:multiply"/>
<path d="M30.2215 75.5172C30.7851 78.1424 32.9537 79.7649 35.0626 79.1416C37.1715 78.5183 38.4238 75.8852 37.8591 73.2601C37.2944 70.6349 35.1269 69.0124 33.0174 69.6357C30.9079 70.259 29.6568 72.8926 30.2215 75.5172Z" fill="url(#paint18_linear_461_75)" style="mix-blend-mode:multiply"/>
<path d="M30.5781 75.6834C31.1371 78.2826 33.2833 79.8894 35.3719 79.2717C37.4605 78.654 38.6998 76.0474 38.1407 73.4482C37.5817 70.849 35.4356 69.2422 33.3469 69.8593C31.2583 70.4765 30.0145 73.0819 30.5781 75.6834Z" fill="#FDF8F9"/>
<path d="M32.734 77.1892C32.9335 78.118 33.682 78.6968 34.4056 78.4854C35.1292 78.2741 35.5542 77.3453 35.3541 76.4171C35.154 75.4889 34.4062 74.9095 33.6825 75.1209C32.9589 75.3322 32.534 76.261 32.734 77.1892Z" fill="#111214"/>
<path d="M34.671 76.0135C34.7381 76.3269 34.9607 76.5314 35.1675 76.47C35.3743 76.4086 35.4871 76.1054 35.4194 75.7937C35.3518 75.4821 35.1298 75.2763 34.9229 75.3372C34.7161 75.3981 34.6034 75.7002 34.671 76.0135Z" fill="#FDF8F9"/>
<path opacity="0.4" d="M33.2725 69.8785C32.4711 70.6174 32.0772 71.9238 32.3579 73.2301C32.7309 74.9626 34.15 76.0373 35.5291 75.6299C36.9082 75.2224 37.7226 73.4883 37.3495 71.7547C37.3258 71.642 37.2965 71.5326 37.2638 71.4261C37.6892 72.0323 37.9866 72.7188 38.1379 73.4437C38.697 76.043 37.4571 78.6501 35.3691 79.2672C33.281 79.8843 31.1343 78.2804 30.5775 75.6834C30.0224 73.1118 31.2279 70.5357 33.2725 69.8785Z" fill="url(#paint19_linear_461_75)" style="mix-blend-mode:multiply"/>
<path opacity="0.45" d="M35.1221 79.0231C36.7633 78.6364 37.9603 77.0556 38.2556 75.1383C38.1113 77.0945 36.9983 78.788 35.369 79.2693C33.5762 79.7991 31.7423 78.69 30.9043 76.7214C31.7795 78.4414 33.437 79.4198 35.1221 79.0231Z" fill="#FDF8F9"/>
<path opacity="0.32" d="M32.4234 78.1434C32.5965 78.2331 32.7588 78.2528 32.7864 78.1874C32.814 78.122 32.6962 77.9964 32.5243 77.9056C32.3524 77.8149 32.1896 77.7968 32.1614 77.8622C32.1332 77.9276 32.2515 78.0538 32.4234 78.1434Z" fill="#FDF8F9"/>
<path d="M17.6125 76.425C18.0363 77.7867 18.9087 78.8608 19.9739 79.4971C21.039 80.1334 22.3009 80.3323 23.5036 79.9423C25.9095 79.1612 27.1719 76.3214 26.3215 73.5981C25.471 70.8749 22.8385 69.3008 20.4337 70.0814C18.029 70.862 16.7643 73.7018 17.6125 76.425Z" fill="url(#paint20_linear_461_75)" style="mix-blend-mode:multiply"/>
<path d="M17.7909 76.0932C18.5968 78.6817 21.1041 80.178 23.3906 79.4363C25.677 78.6947 26.8774 75.9946 26.0715 73.406C25.2656 70.8175 22.7582 69.3212 20.4718 70.0635C18.1854 70.8057 16.9849 73.5052 17.7909 76.0932Z" fill="url(#paint21_linear_461_75)" style="mix-blend-mode:multiply"/>
<path d="M18.193 76.2362C18.991 78.7993 21.473 80.281 23.7375 79.5466C26.0019 78.8123 27.1905 76.1387 26.3925 73.5761C25.5945 71.0135 23.1119 69.5313 20.8474 70.2656C18.583 71 17.3944 73.6736 18.193 76.2362Z" fill="#FDF8F9"/>
<path d="M20.1313 77.7259C20.4159 78.6411 21.2833 79.1765 22.0678 78.9218C22.8523 78.667 23.2575 77.7191 22.9723 76.8039C22.6872 75.8886 21.8204 75.3532 21.0359 75.6074C20.2514 75.8616 19.8462 76.8106 20.1313 77.7259Z" fill="#111214"/>
<path d="M22.1893 76.4419C22.2857 76.7508 22.545 76.9424 22.7693 76.8697C22.9936 76.797 23.0973 76.4876 23.0009 76.1788C22.9045 75.8699 22.6453 75.6783 22.421 75.751C22.1967 75.8237 22.093 76.1342 22.1893 76.4419Z" fill="#FDF8F9"/>
<path opacity="0.4" d="M20.7715 70.2933C19.9374 71.0767 19.5925 72.4034 19.9932 73.6912C20.5252 75.3994 22.1686 76.3913 23.6627 75.9066C25.1567 75.4219 25.9373 73.6432 25.4052 71.935C25.3709 71.8223 25.3314 71.7164 25.288 71.6121C25.7929 72.1801 26.17 72.8499 26.3938 73.5762C27.1918 76.1388 26.0026 78.8118 23.7387 79.5467C21.4748 80.2816 18.9923 78.7994 18.1943 76.2363C17.4041 73.7036 18.5572 71.0621 20.7715 70.2933Z" fill="url(#paint22_linear_461_75)" style="mix-blend-mode:multiply"/>
<path opacity="0.45" d="M23.4485 79.3144C25.2345 78.8353 26.4473 77.1891 26.6412 75.2566C26.6169 77.2173 25.5055 78.9711 23.7382 79.5443C21.7949 80.1749 19.6917 79.1712 18.6299 77.2545C19.7153 78.9232 21.6174 79.8058 23.4485 79.3144Z" fill="#FDF8F9"/>
<path opacity="0.32" d="M20.4054 78.5898C20.6021 78.6699 20.7825 78.68 20.8089 78.613C20.8354 78.5459 20.6962 78.427 20.4995 78.3475C20.3029 78.268 20.1225 78.2573 20.096 78.3244C20.0695 78.3915 20.2082 78.5104 20.4054 78.5898Z" fill="#FDF8F9"/>
<path d="M18.9575 68.9535C18.6923 68.9561 18.4277 68.929 18.1685 68.8729C18.0557 68.8436 17.9589 68.771 17.8991 68.671C17.8392 68.571 17.821 68.4514 17.8484 68.3381C17.8611 68.2823 17.8847 68.2295 17.9179 68.1828C17.951 68.1361 17.9931 68.0964 18.0416 68.066C18.0902 68.0356 18.1443 68.0152 18.2008 68.0058C18.2573 67.9964 18.3151 67.9982 18.3708 68.0112C18.3821 68.0112 19.5059 68.2727 20.3997 67.6539C20.9982 67.2403 21.3787 66.5144 21.5297 65.4971C21.5374 65.4402 21.5564 65.3853 21.5855 65.3358C21.6145 65.2862 21.6531 65.2429 21.699 65.2084C21.745 65.1738 21.7973 65.1487 21.8529 65.1346C21.9086 65.1204 21.9665 65.1174 22.0234 65.1257C22.0806 65.1351 22.1354 65.1556 22.1847 65.1862C22.234 65.2168 22.2767 65.2568 22.3105 65.3039C22.3444 65.351 22.3686 65.4043 22.3818 65.4607C22.3949 65.5172 22.3969 65.5757 22.3875 65.6329C22.1981 66.9089 21.6903 67.8388 20.8776 68.3945C20.2177 68.8476 19.4918 68.9535 18.9575 68.9535Z" fill="#111214"/>
<path d="M36.5125 68.2887C34.2678 68.2887 33.131 66.5128 32.8261 65.4708C32.7928 65.359 32.8048 65.2387 32.8595 65.1357C32.9143 65.0328 33.0074 64.9556 33.1186 64.9207C33.1735 64.9045 33.2311 64.8993 33.2881 64.9055C33.345 64.9117 33.4001 64.9291 33.4502 64.9568C33.5004 64.9845 33.5445 65.0219 33.5801 65.0668C33.6156 65.1117 33.6419 65.1632 33.6574 65.2183C33.6918 65.331 34.469 67.8231 37.182 67.3447C37.2387 67.3349 37.2967 67.3366 37.3527 67.3495C37.4086 67.3625 37.4615 67.3864 37.5081 67.42C37.5548 67.4536 37.5943 67.4961 37.6243 67.5451C37.6543 67.5941 37.6743 67.6486 37.683 67.7054C37.7035 67.8201 37.6777 67.9382 37.6114 68.0341C37.5451 68.1299 37.4437 68.1957 37.3291 68.2171C37.0595 68.2647 36.7863 68.2887 36.5125 68.2887Z" fill="#111214"/>
<path opacity="0.19" d="M27.3037 57.6257C27.3037 57.6257 44.1885 56.1835 46.0275 75.4072C46.0275 75.4072 43.0935 58.6841 27.3037 57.6257Z" fill="white"/>
<defs>
<linearGradient id="paint0_linear_461_75" x1="19.5207" y1="84.39" x2="19.4052" y2="86.3157" gradientUnits="userSpaceOnUse">
<stop stop-color="#808080"/>
<stop offset="1" stop-color="#EDECEC"/>
</linearGradient>
<linearGradient id="paint1_linear_461_75" x1="8012.62" y1="4095.37" x2="8389.51" y2="3728.94" gradientUnits="userSpaceOnUse">
<stop stop-color="#808080"/>
<stop offset="1" stop-color="#EDECEC"/>
</linearGradient>
<linearGradient id="paint2_linear_461_75" x1="3797.1" y1="2311.77" x2="3828.4" y2="2281.33" gradientUnits="userSpaceOnUse">
<stop stop-color="#808080"/>
<stop offset="1" stop-color="#EDECEC"/>
</linearGradient>
<linearGradient id="paint3_linear_461_75" x1="7674.47" y1="929.166" x2="7665.51" y2="900.762" gradientUnits="userSpaceOnUse">
<stop stop-color="#808080"/>
<stop offset="1" stop-color="#EDECEC"/>
</linearGradient>
<linearGradient id="paint4_linear_461_75" x1="48203.5" y1="-48902.6" x2="46893.1" y2="-47792.1" gradientUnits="userSpaceOnUse">
<stop stop-color="#808080"/>
<stop offset="1" stop-color="#EDECEC"/>
</linearGradient>
<linearGradient id="paint5_linear_461_75" x1="13405.5" y1="-15972.2" x2="13299.5" y2="-15882.3" gradientUnits="userSpaceOnUse">
<stop stop-color="#808080"/>
<stop offset="1" stop-color="#EDECEC"/>
</linearGradient>
<linearGradient id="paint6_linear_461_75" x1="570.892" y1="-11535.1" x2="593.446" y2="-11439.8" gradientUnits="userSpaceOnUse">
<stop stop-color="#808080"/>
<stop offset="1" stop-color="#EDECEC"/>
</linearGradient>
<linearGradient id="paint7_linear_461_75" x1="180.469" y1="447.838" x2="288.539" y2="447.838" gradientUnits="userSpaceOnUse">
<stop stop-color="#808080"/>
<stop offset="1" stop-color="#EDECEC"/>
</linearGradient>
<linearGradient id="paint8_linear_461_75" x1="136.34" y1="542.439" x2="146.108" y2="542.439" gradientUnits="userSpaceOnUse">
<stop stop-color="#808080"/>
<stop offset="1" stop-color="#EDECEC"/>
</linearGradient>
<linearGradient id="paint9_linear_461_75" x1="23.2059" y1="156.226" x2="23.2968" y2="156.226" gradientUnits="userSpaceOnUse">
<stop stop-color="#808080"/>
<stop offset="1" stop-color="#EDECEC"/>
</linearGradient>
<linearGradient id="paint10_linear_461_75" x1="-2852.71" y1="-16908.4" x2="20604.6" y2="-11751" gradientUnits="userSpaceOnUse">
<stop stop-color="#808080"/>
<stop offset="1" stop-color="#EDECEC"/>
</linearGradient>
<linearGradient id="paint11_linear_461_75" x1="315.275" y1="-4268.15" x2="5301.87" y2="-10437.8" gradientUnits="userSpaceOnUse">
<stop stop-color="#808080"/>
<stop offset="1" stop-color="#EDECEC"/>
</linearGradient>
<linearGradient id="paint12_linear_461_75" x1="29.7745" y1="84.7254" x2="24.9046" y2="85.3098" gradientUnits="userSpaceOnUse">
<stop stop-color="#8A4946"/>
<stop offset="1" stop-color="#EDECEC"/>
</linearGradient>
<linearGradient id="paint13_linear_461_75" x1="2815.09" y1="828.704" x2="3877.93" y2="828.704" gradientUnits="userSpaceOnUse">
<stop stop-color="#808080"/>
<stop offset="1" stop-color="#EDECEC"/>
</linearGradient>
<linearGradient id="paint14_linear_461_75" x1="1103.3" y1="440.951" x2="1173.88" y2="440.951" gradientUnits="userSpaceOnUse">
<stop stop-color="#808080"/>
<stop offset="1" stop-color="#EDECEC"/>
</linearGradient>
<linearGradient id="paint15_linear_461_75" x1="6113.94" y1="2204.19" x2="6142.57" y2="2147.93" gradientUnits="userSpaceOnUse">
<stop stop-color="#808080"/>
<stop offset="1" stop-color="#EDECEC"/>
</linearGradient>
<linearGradient id="paint16_linear_461_75" x1="669.037" y1="-1162.78" x2="806.714" y2="-1131.57" gradientUnits="userSpaceOnUse">
<stop stop-color="#808080"/>
<stop offset="1" stop-color="#EDECEC"/>
</linearGradient>
<linearGradient id="paint17_linear_461_75" x1="29.8922" y1="74.4806" x2="38.2211" y2="74.8224" gradientUnits="userSpaceOnUse">
<stop stop-color="#4D4D4D"/>
<stop offset="1" stop-color="#EDECEC"/>
</linearGradient>
<linearGradient id="paint18_linear_461_75" x1="29352.5" y1="534.332" x2="28952.5" y2="1907.49" gradientUnits="userSpaceOnUse">
<stop stop-color="#4D4D4D"/>
<stop offset="1" stop-color="#EDECEC"/>
</linearGradient>
<linearGradient id="paint19_linear_461_75" x1="28927.6" y1="2017.14" x2="29158.1" y2="842.751" gradientUnits="userSpaceOnUse">
<stop stop-color="#4D4D4D"/>
<stop offset="1" stop-color="#EDECEC"/>
</linearGradient>
<linearGradient id="paint20_linear_461_75" x1="677.315" y1="2271.36" x2="2196.24" y2="2271.36" gradientUnits="userSpaceOnUse">
<stop stop-color="#4D4D4D"/>
<stop offset="1" stop-color="#EDECEC"/>
</linearGradient>
<linearGradient id="paint21_linear_461_75" x1="31063.4" y1="-853.291" x2="30796.5" y2="578.66" gradientUnits="userSpaceOnUse">
<stop stop-color="#4D4D4D"/>
<stop offset="1" stop-color="#EDECEC"/>
</linearGradient>
<linearGradient id="paint22_linear_461_75" x1="30638.9" y1="581.172" x2="30756" y2="-615.414" gradientUnits="userSpaceOnUse">
<stop stop-color="#4D4D4D"/>
<stop offset="1" stop-color="#EDECEC"/>
</linearGradient>
</defs>
</svg>
