<svg width="184" height="206" viewBox="0 0 184 206" fill="none" xmlns="http://www.w3.org/2000/svg">
<rect width="109" height="43" rx="21.5" fill="white" fill-opacity="0.2"/>
<path d="M28.669 28.27C30.163 28.27 31.399 27.892 32.377 27.136C33.361 26.38 34.045 25.363 34.429 24.085L32.521 23.572C32.263 24.478 31.813 25.189 31.171 25.705C30.529 26.221 29.695 26.479 28.669 26.479C27.751 26.479 26.983 26.272 26.365 25.858C25.753 25.444 25.291 24.865 24.979 24.121C24.673 23.377 24.523 22.51 24.529 21.52C24.535 20.53 24.691 19.663 24.997 18.919C25.303 18.175 25.762 17.596 26.374 17.182C26.986 16.768 27.751 16.561 28.669 16.561C29.695 16.561 30.529 16.819 31.171 17.335C31.813 17.851 32.263 18.562 32.521 19.468L34.429 18.955C34.045 17.677 33.361 16.66 32.377 15.904C31.399 15.148 30.163 14.77 28.669 14.77C27.373 14.77 26.269 15.055 25.357 15.625C24.445 16.195 23.746 16.987 23.26 18.001C22.78 19.009 22.54 20.182 22.54 21.52C22.54 22.858 22.78 24.034 23.26 25.048C23.746 26.056 24.445 26.845 25.357 27.415C26.269 27.985 27.373 28.27 28.669 28.27ZM39.1534 28.27C40.7014 28.27 41.8684 27.709 42.6544 26.587V28H44.3194V22.015C44.3194 21.607 44.3014 21.226 44.2654 20.872C44.2294 20.518 44.1334 20.182 43.9774 19.864C43.6774 19.222 43.2034 18.754 42.5554 18.46C41.9134 18.16 41.1574 18.01 40.2874 18.01C39.1654 18.01 38.2654 18.256 37.5874 18.748C36.9094 19.24 36.4534 19.903 36.2194 20.737L37.9744 21.277C38.1424 20.737 38.4394 20.347 38.8654 20.107C39.2914 19.867 39.7594 19.747 40.2694 19.747C41.0254 19.747 41.5714 19.909 41.9074 20.233C42.2494 20.551 42.4354 21.046 42.4654 21.718C41.6734 21.826 40.8994 21.94 40.1434 22.06C39.3874 22.174 38.7274 22.312 38.1634 22.474C37.4134 22.714 36.8434 23.071 36.4534 23.545C36.0634 24.019 35.8684 24.622 35.8684 25.354C35.8684 25.882 35.9914 26.368 36.2374 26.812C36.4894 27.25 36.8584 27.604 37.3444 27.874C37.8364 28.138 38.4394 28.27 39.1534 28.27ZM39.4864 26.731C38.8864 26.731 38.4424 26.593 38.1544 26.317C37.8724 26.041 37.7314 25.714 37.7314 25.336C37.7314 24.952 37.8574 24.649 38.1094 24.427C38.3674 24.205 38.6884 24.028 39.0724 23.896C39.4804 23.776 39.9604 23.671 40.5124 23.581C41.0704 23.491 41.7154 23.392 42.4474 23.284C42.4414 23.512 42.4264 23.767 42.4024 24.049C42.3784 24.331 42.3274 24.583 42.2494 24.805C42.1774 25.123 42.0244 25.429 41.7904 25.723C41.5624 26.017 41.2534 26.26 40.8634 26.452C40.4794 26.638 40.0204 26.731 39.4864 26.731ZM49.1675 28H51.0485V19.972H54.3695V18.28H45.8465V19.972H49.1675V28ZM57.1463 32.32H58.9373L64.3013 18.28H62.3933L59.6483 25.588L56.7773 18.28H54.8153L58.7483 27.955L57.1463 32.32ZM65.7022 32.32H67.5922V27.316C67.9342 27.622 68.3272 27.856 68.7712 28.018C69.2212 28.186 69.7222 28.27 70.2742 28.27C71.1802 28.27 71.9602 28.045 72.6142 27.595C73.2742 27.139 73.7812 26.524 74.1352 25.75C74.4952 24.976 74.6752 24.103 74.6752 23.131C74.6752 22.153 74.4952 21.28 74.1352 20.512C73.7752 19.738 73.2622 19.129 72.5962 18.685C71.9362 18.235 71.1502 18.01 70.2382 18.01C69.6382 18.01 69.0982 18.112 68.6182 18.316C68.1382 18.514 67.7242 18.793 67.3762 19.153V18.28H65.7022V32.32ZM70.0132 26.569C69.0892 26.569 68.4172 26.248 67.9972 25.606C67.5832 24.964 67.3762 24.139 67.3762 23.131C67.3762 22.123 67.5832 21.301 67.9972 20.665C68.4112 20.029 69.0622 19.711 69.9502 19.711C70.5742 19.711 71.0872 19.864 71.4892 20.17C71.8912 20.476 72.1882 20.887 72.3802 21.403C72.5782 21.919 72.6772 22.495 72.6772 23.131C72.6772 23.773 72.5812 24.355 72.3892 24.877C72.1972 25.393 71.9032 25.804 71.5072 26.11C71.1172 26.416 70.6192 26.569 70.0132 26.569ZM76.6533 28H78.5343V24.022H83.2773V28H85.1583V18.28H83.2773V22.249H78.5343V18.28H76.6533V28Z" fill="white"/>
<line x1="54.3977" y1="42.697" x2="86.3977" y2="84.697" stroke="white"/>
<path d="M108.455 184.811C108.089 184.82 107.723 184.823 107.391 184.823L106.14 184.813C105.914 184.813 105.688 184.806 105.461 184.798L103.538 184.703C103.164 184.678 102.792 184.65 102.428 184.618L101.947 184.576C101.588 184.541 101.229 184.504 100.864 184.468L100.521 184.428C100.107 184.378 99.6942 184.319 99.2716 184.262L99.044 184.23C98.7535 184.187 98.4653 184.142 98.177 184.093L97.815 184.032C96.5796 183.815 95.3224 183.561 94.087 183.262L93.7554 183.18C93.0217 182.997 92.2923 182.8 91.5879 182.594L91.5261 182.578C91.045 182.433 90.5663 182.286 90.0902 182.135L89.7922 182.038C88.5751 181.638 87.3538 181.19 86.1562 180.704L85.9297 180.611C85.3033 180.354 84.6802 180.086 84.0657 179.807L83.655 179.617C83.3299 179.465 83.0047 179.312 82.6872 179.158L82.1865 178.909C81.8903 178.765 81.5955 178.615 81.3022 178.46L80.8254 178.209C80.5154 178.045 80.2065 177.875 79.9042 177.705L79.4869 177.473C79.2258 177.325 78.9657 177.172 78.7153 177.025L78.1735 176.705C77.7349 176.441 77.2989 176.169 76.8654 175.89L76.5403 175.679C76.2238 175.473 75.9085 175.264 75.5942 175.051L75.1065 174.714C74.8464 174.533 74.5863 174.351 74.3316 174.172C74.181 174.064 74.0304 173.956 73.8851 173.847C73.611 173.648 73.3433 173.443 73.0647 173.234L72.6529 172.92C72.3853 172.713 72.1197 172.501 71.8802 172.307L71.4543 171.966C71.0577 171.641 70.6643 171.316 70.2731 170.972L70.0693 170.792C69.7536 170.517 69.4407 170.238 69.1308 169.956L68.6626 169.522C68.4415 169.317 68.2226 169.11 68.0059 168.901L67.606 168.511C67.3668 168.277 67.1295 168.04 66.894 167.801L66.5038 167.402C66.2546 167.144 66.0086 166.882 65.7593 166.613L65.445 166.277C65.1199 165.919 64.7948 165.558 64.4751 165.194L64.3147 165.025L64.2681 164.938C63.9831 164.606 63.7013 164.269 63.4239 163.93L62.9763 163.374C62.8007 163.157 62.6251 162.935 62.4507 162.711L61.1621 160.987C60.9591 160.705 60.7593 160.421 60.5628 160.136L60.2626 159.702C60.0188 159.344 59.7804 158.982 59.5441 158.619L59.3989 158.402C59.1178 157.961 58.8411 157.515 58.5687 157.062L58.352 156.688C58.158 156.363 57.9662 156.032 57.7787 155.7L57.5013 155.201C57.3365 154.901 57.1736 154.6 57.0125 154.298L56.7286 153.756C56.5703 153.45 56.4157 153.144 56.2647 152.837L55.8616 152.017C55.7727 151.83 55.6871 151.642 55.6015 151.453L55.3295 150.872C55.1127 150.396 54.9068 149.917 54.6901 149.397L54.5719 149.103C54.4079 148.705 54.2483 148.304 54.0929 147.903L53.8155 147.165C53.7646 147.03 53.7136 146.895 53.6649 146.76L53.5836 146.528C33.2658 140.753 23.3247 134.795 24.0356 128.812C24.0603 128.62 24.0965 128.429 24.144 128.242C24.1646 128.154 24.1906 128.067 24.2209 127.967C24.2415 127.896 24.2643 127.824 24.2881 127.756C24.3661 127.526 24.4599 127.302 24.5688 127.085L24.623 126.977C24.7547 126.732 24.9032 126.496 25.0673 126.271C25.1107 126.212 25.1562 126.152 25.1952 126.102C25.3311 125.926 25.4757 125.757 25.6287 125.596L26.2941 124.935H26.3364C29.9918 121.901 38.1274 119.972 50.5556 119.186C50.6066 118.772 50.664 118.358 50.7236 117.946L50.8255 117.305C51.0932 115.629 51.4183 113.982 51.8106 112.4C52.0327 111.5 52.2798 110.588 52.5475 109.69C52.6797 109.243 52.8177 108.798 52.9615 108.354C53.0049 108.217 53.0515 108.082 53.097 107.947L53.1934 107.661C53.5738 106.531 53.977 105.439 54.3909 104.416C54.5643 103.982 54.7428 103.553 54.9263 103.128C55.2384 102.406 55.5766 101.675 55.958 100.878C56.0317 100.722 56.1087 100.567 56.1845 100.412L56.3157 100.148C56.5324 99.7145 56.7492 99.2897 56.9973 98.8258L57.7288 97.4917C57.8957 97.1948 58.0655 96.8993 58.2382 96.6053L58.481 96.1989C58.7252 95.7899 58.9744 95.3842 59.2287 94.9818L59.2764 94.9081C59.7923 94.0932 60.3331 93.2825 60.8858 92.5044L60.9237 92.4481C61.3474 91.8498 61.8058 91.2289 62.2849 90.6057L62.429 90.4161C62.8885 89.8243 63.3621 89.238 63.8292 88.6821L63.9896 88.5033C64.5108 87.8866 65.0061 87.3231 65.5252 86.7552L65.7712 86.4919C65.9674 86.2805 66.1625 86.0681 66.3597 85.8622L67.1606 85.0472L68.5207 86.4658L67.2223 84.9811L67.8726 84.345C68.1544 84.0719 68.4383 83.8031 68.7211 83.5398L70.0747 82.3184C70.285 82.1353 70.4974 81.9521 70.7076 81.7765L71.204 81.3604C71.5038 81.1118 71.8058 80.8676 72.11 80.6278L72.8242 80.0686C72.9943 79.9374 73.1645 79.8096 73.3378 79.6784L73.6781 79.4205C73.9978 79.1853 74.3219 78.9545 74.66 78.715L74.7369 78.6597C75.1452 78.3707 75.5581 78.0879 75.9757 77.8112C76.1339 77.7028 76.3008 77.6031 76.4568 77.5001L77.3986 76.8997C77.7638 76.6732 78.1312 76.4489 78.4975 76.2332L79.1618 75.8485C79.3688 75.7293 79.5769 75.6112 79.7839 75.4963L80.3182 75.2037C80.5479 75.0802 80.7766 74.9555 81.0031 74.8374L81.5916 74.535C81.8657 74.3963 82.1399 74.2587 82.4141 74.1243C82.594 74.0365 82.7739 73.9509 82.956 73.8642L83.7655 73.486L84.3334 73.2313C84.6032 73.1132 84.8753 72.9951 85.1386 72.8834L85.7715 72.6179C86.0294 72.5132 86.2877 72.4102 86.5464 72.309L87.1273 72.0847C87.3635 71.9958 87.5998 71.9081 87.862 71.8138L88.5491 71.5667C88.8157 71.4735 89.0834 71.3846 89.3522 71.2947L91.4579 70.6368C91.9484 70.4924 92.4433 70.3554 92.9426 70.2261C93.5831 70.0592 94.2246 69.9075 94.864 69.7644L95.705 69.5791C96.2198 69.4708 96.7346 69.3721 97.2428 69.28L97.5777 69.2247L98.2106 69.1164L98.462 69.0752C98.669 69.0416 98.876 69.0134 99.0819 68.9831L99.7744 68.8855C100.154 68.8357 100.533 68.7902 100.919 68.7479L102.179 68.6168C102.432 68.594 102.685 68.5702 102.938 68.5507L104.359 68.464C104.853 68.439 105.348 68.4217 105.849 68.4109L106.646 68.4C107.021 68.4 107.395 68.4 107.771 68.4L108.189 68.4065C108.478 68.4123 108.767 68.4206 109.056 68.4315L109.515 68.4488C109.68 68.4542 109.84 68.4596 110.01 68.4694L110.812 68.5214C111.127 68.542 111.441 68.5648 111.762 68.5918L112.403 68.6504C112.997 68.7067 113.59 68.7707 114.197 68.8476L114.533 68.8964C115.093 68.9722 115.651 69.0568 116.229 69.1521L116.927 69.2692C117.431 69.3602 117.931 69.4588 118.444 69.565L118.552 69.59C119.147 69.7142 119.739 69.8493 120.328 69.9953L120.622 70.0668C121.248 70.2239 121.871 70.3919 122.498 70.5697L122.588 70.5968C123.182 70.7694 123.775 70.9522 124.366 71.1451L124.952 71.3359C125.453 71.5049 125.952 71.6837 126.448 71.8669L126.525 71.8961C126.863 72.0219 127.2 72.1487 127.533 72.2787C127.722 72.3524 127.907 72.4293 128.093 72.5063L128.472 72.6645C128.712 72.7642 128.952 72.8657 129.191 72.969L129.597 73.1457L129.623 73.1565L129.724 73.202C129.916 73.2866 130.115 73.3744 130.347 73.4806C130.888 73.7277 131.424 73.9845 131.978 74.2587L132.549 74.5415C133.042 74.794 133.531 75.0541 134.041 75.3337C134.351 75.5028 134.661 75.674 134.969 75.8507C135.203 75.984 135.436 76.1227 135.668 76.2603L135.848 76.3687C136.436 76.7188 137.018 77.0796 137.599 77.4524C139.438 78.6395 141.209 79.9309 142.9 81.3203C144.322 82.4885 145.704 83.7403 147.01 85.0429C147.335 85.368 147.66 85.7018 147.985 86.0367C148.947 87.0435 149.883 88.0958 150.768 89.1708C151.654 90.2459 152.524 91.3784 153.334 92.5207C154.229 93.7821 155.099 95.1216 155.92 96.5099L156.04 96.7125C156.301 97.1569 156.557 97.6052 156.806 98.0575L156.922 98.2666C157.48 99.2853 158.013 100.337 158.508 101.387L158.808 102.037C158.952 102.347 159.09 102.657 159.221 102.968L159.633 103.929C159.734 104.175 159.834 104.422 159.949 104.713L160.069 105.009C160.136 105.182 160.202 105.356 160.267 105.531L161.477 109.04C161.558 109.301 161.636 109.563 161.713 109.825L161.947 110.626C162.093 111.148 162.235 111.672 162.368 112.201C162.497 112.71 162.617 113.219 162.735 113.749C163.161 115.651 163.494 117.585 163.732 119.493C163.787 119.941 163.84 120.389 163.882 120.838C163.983 121.854 164.059 122.87 164.107 123.854C164.131 124.337 164.149 124.82 164.16 125.301C164.172 125.784 164.177 126.263 164.177 126.744C164.177 127.225 164.177 127.704 164.159 128.181C164.146 128.744 164.121 129.307 164.092 129.869C164.048 130.685 163.983 131.495 163.913 132.288C163.86 132.859 163.795 133.437 163.722 134.022C175.377 138.082 182.068 142.192 183.62 146.246C183.695 146.445 183.758 146.643 183.81 146.836C183.887 147.125 183.94 147.419 183.967 147.716C183.974 147.781 183.978 147.848 183.98 147.893C183.983 147.937 183.987 147.963 183.989 147.995L184 148.103V148.16C184.001 148.378 183.987 148.596 183.959 148.813C183.294 154.41 173.495 157.7 154.826 158.587C154.71 158.766 154.595 158.944 154.48 159.117L154.402 159.235L152.794 158.119L154.348 159.325L154.229 159.504C154.099 159.7 153.967 159.895 153.833 160.089C153.336 160.812 152.871 161.462 152.409 162.077C152.249 162.294 152.084 162.499 151.924 162.71L151.563 163.177C151.186 163.656 150.798 164.125 150.403 164.595L150.255 164.77C149.802 165.304 149.342 165.833 148.87 166.351C148.383 166.885 147.882 167.408 147.371 167.927L147.2 168.103C146.711 168.594 146.214 169.077 145.708 169.551L145.398 169.838C144.901 170.298 144.398 170.752 143.881 171.195C143.364 171.639 142.843 172.062 142.317 172.485L142.046 172.702C141.571 173.077 141.092 173.447 140.602 173.809L140.189 174.106C139.647 174.495 139.105 174.876 138.519 175.272L138.302 175.419C137.767 175.774 137.218 176.119 136.677 176.456L136.336 176.664C135.794 176.989 135.253 177.314 134.696 177.626L134.344 177.817C133.777 178.13 133.203 178.433 132.622 178.727L132.18 178.954C131.753 179.165 131.325 179.37 130.895 179.57L130.112 179.923C129.499 180.197 128.882 180.464 128.297 180.699L128.033 180.807C127.416 181.052 126.792 181.287 126.154 181.517L125.798 181.644C125.148 181.872 124.491 182.089 123.828 182.294L123.419 182.418C122.848 182.59 122.274 182.757 121.694 182.913L121.335 183.009L121.241 183.033L121.138 183.06C120.697 183.168 120.257 183.277 119.813 183.385L118.285 183.709L117.784 183.807L117.483 183.864C117.335 183.893 117.187 183.923 117.018 183.953L114.604 184.328C114.293 184.369 113.983 184.409 113.674 184.444C113.476 184.469 113.278 184.492 113.043 184.517L112.717 184.553C112.569 184.569 112.419 184.581 112.27 184.594L111.567 184.654C111.364 184.67 111.162 184.685 110.961 184.698L110.055 184.754C109.73 184.771 109.404 184.786 109.067 184.797C108.866 184.802 108.662 184.807 108.455 184.811ZM120.198 179.115L120.575 179.102C121.159 178.946 121.737 178.777 122.308 178.607L122.694 178.49C123.311 178.299 123.922 178.098 124.537 177.882L124.868 177.764C125.456 177.552 126.04 177.33 126.602 177.114L126.819 177.026C127.402 176.792 127.976 176.541 128.576 176.275L129.273 175.962C129.676 175.774 130.076 175.583 130.472 175.386L130.887 175.169C131.429 174.896 131.959 174.616 132.492 174.321L132.817 174.146C133.334 173.857 133.844 173.555 134.345 173.251L134.664 173.056C135.176 172.741 135.684 172.421 136.21 172.071L136.421 171.927C136.934 171.584 137.44 171.23 137.938 170.867L138.325 170.588C138.779 170.254 139.224 169.909 139.663 169.563L139.915 169.361C140.41 168.966 140.9 168.565 141.378 168.155C141.856 167.746 142.325 167.321 142.8 166.882L143.078 166.624C143.549 166.183 144.011 165.734 144.464 165.278L144.63 165.108C145.104 164.627 145.569 164.138 146.024 163.642C146.464 163.159 146.891 162.666 147.316 162.168L147.455 162.003C147.821 161.57 148.182 161.131 148.539 160.68L148.879 160.239C149.028 160.046 149.177 159.855 149.325 159.659C149.753 159.089 150.186 158.482 150.651 157.806C150.776 157.625 150.897 157.445 151.021 157.264L151.248 156.92C151.537 156.483 151.82 156.04 152.096 155.594L152.638 154.714L153.657 154.671C174.085 153.804 179.889 150.147 180.105 148.333C180.105 148.307 180.105 148.281 180.105 148.264V148.231L180.096 148.106C180.089 148.028 180.076 147.951 180.057 147.874C180.04 147.812 180.019 147.748 179.996 147.686C179.731 146.996 178.587 145.146 173.681 142.51C174.105 143.066 174.413 143.702 174.586 144.379V144.395C174.616 144.513 174.643 144.633 174.661 144.746C174.692 144.932 174.709 145.12 174.715 145.308C174.72 145.501 174.711 145.693 174.689 145.885C174.4 148.32 172.247 151.707 156.959 152.969L153.579 153.249L155.046 150.131C155.726 148.686 156.347 147.201 156.909 145.677L156.934 145.607C157.226 144.808 157.504 143.99 157.76 143.178C158.193 141.783 158.584 140.352 158.908 138.928C158.96 138.703 159.01 138.478 159.058 138.253C159.14 137.869 159.22 137.484 159.294 137.098L159.466 136.242L159.646 135.069C159.809 134.008 159.942 132.944 160.04 131.906C160.109 131.172 160.165 130.414 160.207 129.654C160.234 129.131 160.256 128.608 160.269 128.081C160.28 127.635 160.286 127.189 160.286 126.743C160.286 126.296 160.286 125.848 160.269 125.399C160.253 124.95 160.242 124.502 160.221 124.051C160.176 123.135 160.106 122.19 160.01 121.242C159.968 120.826 159.924 120.408 159.872 119.99C159.655 118.208 159.339 116.405 158.945 114.646L158.929 114.575C158.825 114.112 158.716 113.65 158.604 113.187C158.479 112.693 158.347 112.203 158.211 111.719L157.995 110.972C157.921 110.726 157.848 110.481 157.778 110.243L156.324 106.161C156.231 105.929 156.139 105.698 156.04 105.457L155.663 104.576C155.535 104.283 155.406 103.993 155.278 103.709L154.998 103.107C154.537 102.126 154.039 101.147 153.521 100.2L153.413 100.004C153.179 99.5826 152.941 99.1647 152.697 98.75L152.589 98.5614C151.824 97.2696 151.012 96.019 150.18 94.8453C149.421 93.7821 148.623 92.732 147.796 91.7252C146.969 90.7184 146.1 89.7441 145.203 88.8067C144.904 88.4946 144.602 88.1846 144.296 87.8801C143.08 86.6674 141.792 85.4959 140.467 84.4122C138.887 83.1161 137.233 81.9108 135.516 80.8023C134.974 80.4555 134.432 80.1206 133.836 79.7619L133.712 79.6882C133.495 79.5614 133.278 79.4335 133.069 79.31C132.784 79.1474 132.496 78.9848 132.181 78.8169C131.728 78.5687 131.273 78.3248 130.813 78.0897L130.262 77.8177C129.766 77.5717 129.266 77.3332 128.714 77.0807C128.629 77.0417 128.542 77.0016 128.456 76.9648H128.305L127.93 76.7307C127.626 76.5985 127.322 76.4684 127.023 76.3449L126.638 76.1877C126.474 76.1195 126.313 76.0523 126.144 75.9862C125.831 75.8637 125.515 75.7466 125.2 75.6296L125.863 73.7645L125.129 75.6068C124.666 75.4356 124.2 75.2705 123.733 75.1116L123.191 74.9338C122.642 74.755 122.091 74.5838 121.531 74.4223L121.446 74.3963C120.867 74.2294 120.285 74.0712 119.712 73.9303L119.431 73.862C118.889 73.7277 118.333 73.6009 117.769 73.4827L117.669 73.46C117.203 73.3635 116.736 73.2703 116.26 73.1858L115.595 73.0774C115.078 72.9918 114.56 72.9116 114.039 72.8422L114.255 70.8699L113.943 72.8292L113.708 72.7946C113.157 72.7241 112.606 72.6667 112.055 72.6125L111.453 72.5583C111.162 72.5345 110.87 72.5128 110.577 72.4922L109.818 72.4434C109.679 72.4358 109.538 72.4315 109.397 72.4261L108.938 72.4088C108.671 72.4001 108.402 72.3914 108.135 72.3871L107.741 72.3806C107.392 72.3806 107.043 72.3806 106.694 72.3806L105.944 72.3892C105.485 72.4001 105.024 72.4153 104.563 72.438L103.239 72.5215C103.009 72.5377 102.78 72.5594 102.55 72.5811L101.358 72.7014C101.006 72.7415 100.653 72.7826 100.296 72.8292L99.6455 72.9224C99.4558 72.9495 99.2672 72.9755 99.0754 73.0059L98.8435 73.0449C98.6463 73.0763 98.4479 73.1099 98.242 73.1446L97.9473 73.1934C97.4672 73.2801 96.986 73.3744 96.4571 73.4849L95.7191 73.6475C95.122 73.7808 94.527 73.9216 93.9277 74.081C93.4639 74.2023 93.0029 74.3298 92.5448 74.4635L90.5768 75.078C90.3286 75.1603 90.0804 75.2427 89.8279 75.3316L89.1463 75.5527C88.9295 75.6339 88.7008 75.7152 88.4863 75.7965L87.9444 76.0132C87.7038 76.1064 87.4643 76.2018 87.2194 76.3015L86.6385 76.5464C86.3838 76.6548 86.1313 76.7632 85.8799 76.8716L84.0928 77.7039C83.8371 77.8285 83.5824 77.9564 83.3342 78.0853L82.7815 78.3704C82.5648 78.4787 82.3545 78.5979 82.1421 78.7128L81.6447 78.9838C81.4496 79.0921 81.2556 79.2005 81.0627 79.3089L80.4493 79.6633C80.1036 79.867 79.7611 80.0762 79.4306 80.2821L78.5235 80.863C78.3815 80.954 78.2396 81.0439 78.0987 81.1393C77.7107 81.3961 77.326 81.6595 76.9185 81.9478L76.8621 81.9879C76.5576 82.2046 76.2553 82.4214 75.9139 82.6717L75.644 82.8765C75.4847 82.9957 75.3265 83.116 75.1596 83.2428L74.5018 83.7587C74.2211 83.9819 73.9404 84.2084 73.6543 84.4458L73.198 84.8283C72.9997 84.9952 72.8036 85.1654 72.6074 85.3355L71.3492 86.4702C71.0815 86.7184 70.8182 86.9698 70.5592 87.2201L69.1503 88.6376C68.9672 88.8284 68.7873 89.0235 68.6084 89.2174L68.409 89.4342L67.0056 88.0611L68.3548 89.4938C67.8722 90.0205 67.4026 90.5562 66.946 91.101L66.8051 91.2657C66.3579 91.7996 65.9208 92.3415 65.4938 92.8913L65.3605 93.0647C64.9118 93.6477 64.4848 94.2254 64.0925 94.7792L64.0546 94.8323C63.5377 95.5649 63.0305 96.3235 62.5471 97.0864L62.5244 97.1233C62.2816 97.5037 62.0454 97.8895 61.782 98.3295L61.5848 98.6546C61.4244 98.9266 61.2683 99.1965 61.1144 99.4739L60.7741 100.076L60.4111 100.758C60.2355 101.09 60.0636 101.422 59.8952 101.755L59.7619 102.021C59.6611 102.224 59.5604 102.428 59.4541 102.648C59.1009 103.381 58.7887 104.062 58.4994 104.732C58.3296 105.13 58.1631 105.529 57.9998 105.932C57.6151 106.883 57.2412 107.901 56.8868 108.954L56.67 109.605C56.5364 110.019 56.4078 110.434 56.2842 110.851C56.035 111.686 55.8052 112.535 55.5982 113.375C55.2373 114.841 54.9296 116.377 54.6868 117.916L54.5893 118.532C54.4603 119.406 54.3519 120.289 54.2642 121.159H54.2295V121.247L54.262 121.253L54.1634 122.336L54.1113 123.217C54.0734 123.859 54.0409 124.499 54.0257 125.143C54.0149 125.59 54.0095 126.035 54.0084 126.483C54.0084 126.68 54.0084 126.879 54.016 127.078L54.0257 127.828C54.1144 131.358 54.5397 134.872 55.2959 138.321L56.0209 141.639L52.8347 140.649C35.0507 135.122 33.4175 130.925 33.7361 128.24C33.7721 127.957 33.8379 127.678 33.9322 127.408C34.1642 126.731 34.5825 125.972 35.5123 125.214C31.069 126.329 29.2505 127.553 28.532 128.26L28.4691 128.326C28.3925 128.407 28.3201 128.491 28.2524 128.58L28.2091 128.637C28.1632 128.697 28.1205 128.76 28.0812 128.825L28.0497 128.886C28.0194 128.947 27.9933 129.009 27.9717 129.073L27.9403 129.171C27.9293 129.21 27.9214 129.249 27.9164 129.288C27.6791 131.28 33.1628 136.704 55.608 142.97L56.6007 143.247L57.317 145.339C57.3636 145.47 57.4135 145.599 57.4622 145.728L57.7321 146.446C57.8766 146.821 58.0254 147.195 58.1786 147.568L58.3097 147.893C58.495 148.337 58.688 148.777 58.8841 149.214L59.142 149.776C59.2222 149.95 59.3013 150.123 59.3826 150.296L59.7533 151.049C59.8941 151.336 60.0372 151.621 60.1868 151.905L60.4458 152.4C60.5953 152.682 60.7481 152.963 60.902 153.24L61.161 153.706C61.3355 154.016 61.5154 154.324 61.6942 154.627L61.9001 154.976C62.1526 155.396 62.4084 155.811 62.6718 156.22L62.8083 156.429C63.0251 156.769 63.2494 157.106 63.477 157.441L63.7555 157.844C63.9408 158.11 64.125 158.375 64.3147 158.638L65.5165 160.246C65.6585 160.43 65.8016 160.611 65.9685 160.82L66.4193 161.38C66.7227 161.75 67.0305 162.117 67.3426 162.477L67.451 162.606C67.7321 162.928 68.0164 163.246 68.3039 163.559L68.5987 163.876C68.8284 164.122 69.0582 164.367 69.2901 164.607L69.6532 164.978C69.8699 165.195 70.0921 165.42 70.3175 165.641L70.6892 166.004C70.8919 166.199 71.0956 166.391 71.3394 166.615L70.039 168.088L71.3969 166.667L71.7426 166.993C72.0309 167.257 72.3235 167.516 72.6161 167.772L72.809 167.942C73.1702 168.256 73.5369 168.565 73.909 168.869L74.2829 169.168C74.5278 169.365 74.7738 169.561 75.0252 169.756L75.4078 170.048C75.6603 170.239 75.9139 170.43 76.174 170.62C76.3094 170.721 76.446 170.819 76.5858 170.92C76.8253 171.092 77.067 171.264 77.3162 171.436L77.7606 171.743C78.0543 171.942 78.3512 172.137 78.646 172.329L78.9494 172.528C79.3515 172.786 79.7568 173.039 80.2131 173.313L80.6671 173.58C80.9066 173.722 81.1461 173.862 81.3943 174.003L81.7801 174.22C82.0662 174.379 82.3523 174.536 82.6417 174.691L83.086 174.924C83.3602 175.067 83.6344 175.206 83.9032 175.342L84.3735 175.574C84.6748 175.72 84.9771 175.863 85.2708 176L85.6588 176.179C86.2343 176.441 86.8152 176.69 87.3928 176.929L87.6095 177.016C88.7247 177.469 89.8648 177.883 90.9973 178.259L91.2964 178.357C91.7205 178.492 92.1457 178.623 92.5719 178.749L92.6294 178.766C93.3002 178.962 93.9938 179.15 94.6885 179.323L94.9962 179.398C96.1515 179.679 97.3198 179.92 98.4761 180.118L98.8132 180.175C99.0819 180.218 99.355 180.262 99.6086 180.3L99.8438 180.333C100.229 180.389 100.614 180.442 100.991 180.486L101.317 180.524C101.648 180.562 101.981 180.597 102.318 180.632L102.751 180.671C103.099 180.701 103.447 180.728 103.794 180.751L105.586 180.839L106.223 180.854L107.352 180.863C107.692 180.863 108.032 180.863 108.398 180.851C108.885 180.841 109.373 180.821 109.864 180.795L111.273 180.703L112.689 180.57C112.871 180.55 113.052 180.53 113.231 180.507C113.524 180.473 113.815 180.436 114.104 180.398L114.275 180.377L114.584 182.337L114.383 180.35L118.955 179.501C119.311 179.418 119.666 179.333 120.023 179.242L120.198 179.115ZM170.822 145.355C170.765 145.138 170.072 143.233 162.624 140.16C162.292 141.58 161.903 143.001 161.467 144.387C161.194 145.26 160.895 146.138 160.572 147.021L158.752 146.32L160.541 147.102C160.349 147.628 160.147 148.154 159.936 148.679C169.906 147.487 170.829 145.413 170.825 145.367V145.353L170.822 145.355ZM50.1113 127.138C50.1113 126.922 50.1037 126.696 50.1037 126.476C50.1037 126.072 50.1077 125.669 50.1156 125.266C40.5473 126.224 37.8131 128.054 37.5779 128.725C37.5779 128.753 38.1198 131.531 50.8536 135.849C50.4308 133.226 50.185 130.578 50.1178 127.922L50.1091 127.26L50.1113 127.138ZM52.3156 120.97L52.864 121.048L53.0124 121.036L52.3156 120.97Z" fill="#FCFDF9"/>
<path d="M25.9654 129.049C24.9748 137.413 59.1037 148.565 102.201 153.956C145.297 159.346 181.039 156.935 182.032 148.569C183.024 140.204 148.893 129.054 105.796 123.663C62.6996 118.273 26.9581 120.684 25.9654 129.049ZM105.579 125.502C143.442 130.238 173.522 139.253 172.77 145.638C172.018 152.023 140.698 153.364 102.833 148.623C64.9689 143.881 34.8899 134.872 35.6474 128.488C36.405 122.104 67.714 120.766 105.579 125.502Z" fill="#CD6145"/>
<path d="M105.62 124.311C143.485 129.047 173.565 138.061 172.806 144.447C172.788 144.59 172.754 144.73 172.704 144.866C171.116 138.545 141.939 130.051 105.579 125.503C68.5609 120.873 37.8133 122.045 35.7498 128.069C35.6836 127.817 35.6634 127.555 35.6902 127.296C36.4478 120.911 67.7568 119.575 105.62 124.311Z" fill="#513532"/>
<path d="M102.245 152.764C144.75 158.074 180.099 155.807 182.013 147.718C182.059 148 182.066 148.287 182.034 148.57C181.041 156.935 145.295 159.347 102.203 153.956C59.1102 148.566 24.9748 137.414 25.9654 129.05C25.9802 128.935 26.0015 128.822 26.0293 128.71C27.32 136.965 60.5928 147.555 102.245 152.764Z" fill="#513532"/>
<path d="M109.07 182.804C139.471 181.758 163.251 155.755 162.184 124.724C161.116 93.6929 135.606 69.385 105.205 70.4307C74.8041 71.4764 51.0244 97.4796 52.0918 128.511C53.1592 159.542 78.6693 183.849 109.07 182.804Z" fill="#DCA348"/>
<path d="M93.4258 72.1434C122.887 64.4554 152.911 82.6079 160.485 112.689C160.733 113.675 160.954 114.661 161.147 115.647C151.648 130.927 140.436 145.056 126.777 156.514C114.88 166.493 100.968 174.325 86.1941 178.578C70.6967 172.036 58.2912 158.385 53.7959 140.531C46.2217 110.448 63.9645 79.8325 93.4258 72.1434Z" fill="#ECB159"/>
<path d="M162.191 128.818C161.303 153.032 145.024 174.768 120.855 181.079C113.852 182.917 106.55 183.322 99.3867 182.271C124.56 170.733 146.559 152.024 162.191 128.818Z" fill="#F0CB7D"/>
<path d="M93.4255 72.1437C115.683 66.3403 138.253 75.2768 151.23 92.9633C151.145 93.0901 151.062 93.2191 150.977 93.3448C129.844 124.838 99.3264 152.096 63.2977 160.602C58.8357 154.605 55.6058 147.784 53.7944 140.532C46.2213 110.448 63.9642 79.8328 93.4255 72.1437Z" fill="#D39047"/>
<path d="M93.4259 72.144C107.432 68.4886 121.564 70.6755 133.348 77.2094C114.567 104.76 84.6303 124.288 52.1465 129.776C50.6282 103.467 67.4814 78.9119 93.4259 72.144Z" fill="#ECB159"/>
<path d="M58.0293 101.089C64.9533 87.2005 77.4693 76.3112 93.4262 72.1442C99.0543 70.6701 104.884 70.1164 110.689 70.5045C96.7825 85.5056 78.5411 96.3505 58.7879 100.93C58.5419 100.987 58.2883 101.04 58.0293 101.089Z" fill="#F0CB7D"/>
<path opacity="0.75" d="M105.381 158.142C131.03 151.449 146.478 124.793 139.883 98.6049C137.276 88.2476 131.603 79.5247 124.121 73.1686C141.446 78.9449 155.612 93.3444 160.485 112.693C168.059 142.775 150.316 173.393 120.855 181.082C91.3937 188.771 61.3699 170.613 53.7957 140.532C53.5009 139.364 53.2593 138.196 53.0371 137.028C63.8972 154.384 84.797 163.515 105.381 158.142Z" fill="url(#paint0_linear_461_72)" style="mix-blend-mode:multiply"/>
<path opacity="0.75" d="M113.889 173.335C143.352 165.646 161.095 135.029 153.52 104.952C151.717 97.7453 148.513 90.9642 144.092 84.9948C151.839 92.1409 157.69 101.602 160.482 112.694C168.057 142.775 150.314 173.394 120.852 181.083C98.7053 186.858 76.2362 178.029 63.2314 160.509C76.4909 172.74 95.2991 178.187 113.889 173.335Z" fill="url(#paint1_linear_461_72)" style="mix-blend-mode:multiply"/>
<path opacity="0.22" d="M119.294 179.689C149.106 171.909 167.06 140.926 159.392 110.486C158.535 107.077 157.369 103.752 155.909 100.554C157.89 104.413 159.424 108.485 160.482 112.692C168.056 142.773 150.313 173.392 120.852 181.081C104.317 185.395 87.6081 181.566 74.793 172.061C87.4586 180.575 103.457 183.818 119.294 179.689Z" fill="#DB7354"/>
<path opacity="0.5" d="M116.255 84.2297C116.255 84.2297 115.847 84.88 115.689 86.0797C115.667 86.2401 115.651 86.4102 115.64 86.5901C115.64 86.5977 115.64 86.6042 115.64 86.6118C115.63 86.7906 115.626 86.9792 115.629 87.1775C115.629 87.1981 115.629 87.2198 115.629 87.2403C115.629 87.4062 115.644 87.5785 115.658 87.7573C115.658 87.8082 115.668 87.8592 115.673 87.9123C115.694 88.1193 115.721 88.3317 115.76 88.5549C115.76 88.5549 124.58 88.9819 131.546 96.1204C131.546 96.1226 127.676 86.8632 116.255 84.2297Z" fill="url(#paint2_linear_461_72)" style="mix-blend-mode:multiply"/>
<path d="M133.729 113.384C133.848 121.683 127.69 128.496 119.974 128.601C112.258 128.707 105.907 122.062 105.787 113.763C105.667 105.464 111.825 98.6492 119.542 98.5452C127.258 98.4411 133.608 105.083 133.729 113.384Z" fill="#F0CB7D"/>
<path opacity="0.75" d="M133.448 114.459C133.57 122.877 127.64 129.783 120.202 129.884C112.764 129.984 106.638 123.237 106.516 114.821C106.395 106.405 112.324 99.4968 119.763 99.3949C127.202 99.2931 133.328 106.037 133.448 114.459Z" fill="url(#paint3_linear_461_72)" style="mix-blend-mode:multiply"/>
<path d="M132.645 113.7C132.761 121.701 127.118 128.265 120.054 128.361C112.99 128.456 107.158 122.049 107.049 114.047C106.941 106.045 112.576 99.4825 119.64 99.3872C126.704 99.2918 132.53 105.696 132.645 113.7Z" fill="url(#paint4_linear_461_72)" style="mix-blend-mode:multiply"/>
<path d="M131.653 114.48C131.761 122.402 126.185 128.902 119.19 129.002C112.194 129.101 106.423 122.752 106.308 114.829C106.194 106.905 111.777 100.406 118.771 100.312C125.766 100.218 131.539 106.556 131.653 114.48Z" fill="#FDF8F9"/>
<path d="M122.197 119.924C122.239 122.754 120.305 125.074 117.88 125.107C115.454 125.139 113.454 122.873 113.414 120.044C113.374 117.214 115.306 114.894 117.732 114.861C120.159 114.829 122.157 117.095 122.197 119.924Z" fill="#111214"/>
<path d="M115.272 118.29C115.286 119.245 114.73 120.024 114.042 120.036C113.354 120.048 112.776 119.277 112.762 118.325C112.748 117.372 113.304 116.591 113.992 116.578C114.68 116.565 115.258 117.335 115.272 118.29Z" fill="#FDF8F9"/>
<path opacity="0.38" d="M119.014 100.309C122.06 101.708 124.238 105.089 124.295 109.069C124.371 114.352 120.687 118.683 116.067 118.746C111.447 118.809 107.64 114.578 107.564 109.296C107.559 108.954 107.571 108.615 107.597 108.282C106.706 110.345 106.266 112.575 106.304 114.822C106.419 122.745 112.185 129.09 119.185 128.995C126.185 128.9 131.766 122.4 131.648 114.478C131.54 106.647 125.903 100.362 119.014 100.309Z" fill="url(#paint5_linear_461_72)" style="mix-blend-mode:multiply"/>
<path opacity="0.45" d="M119.783 128.073C114.353 128.429 109.459 124.977 107.151 119.764C109.012 125.223 113.723 129.071 119.181 128.997C125.188 128.915 130.148 124.12 131.362 117.746C129.857 123.437 125.357 127.707 119.783 128.073Z" fill="#FDF8F9"/>
<path opacity="0.32" d="M127.624 123.157C127.147 123.567 126.648 123.767 126.517 123.605C126.386 123.442 126.661 122.98 127.138 122.569C127.615 122.158 128.113 121.959 128.244 122.121C128.376 122.284 128.1 122.748 127.624 123.157Z" fill="#FDF8F9"/>
<path d="M116.435 88.2713C116.435 88.2713 125.255 88.6983 132.221 95.8369C132.221 95.8369 128.351 86.5774 116.93 83.944C116.93 83.944 115.949 85.4785 116.435 88.2713Z" fill="#34404E"/>
<path d="M116.363 85.7938C116.261 86.6185 116.285 87.4539 116.434 88.2712C116.434 88.2712 125.254 88.6982 132.22 95.8368C126.173 86.8125 117.255 85.8675 116.363 85.7938Z" fill="url(#paint6_linear_461_72)" style="mix-blend-mode:multiply"/>
<path opacity="0.39" d="M93.493 88.5444C93.5049 88.5281 93.519 88.5043 93.5385 88.475C93.5421 88.4687 93.5461 88.4625 93.5504 88.4566C93.5732 88.4198 93.5992 88.3753 93.6296 88.3222C93.6924 88.2139 93.7683 88.0621 93.8463 87.8812C93.8463 87.8736 93.8528 87.866 93.855 87.8584C93.8907 87.776 93.9254 87.6861 93.9633 87.5907L93.9763 87.5539C94.065 87.3122 94.1374 87.065 94.1931 86.8137C94.3644 86.0033 94.3854 85.1683 94.2549 84.3504C94.2549 84.3504 85.0095 82.7963 77.3486 91.3578C77.3486 91.3578 84.381 86.4365 93.4735 88.5834L93.4908 88.5585L93.493 88.5444Z" fill="url(#paint7_linear_461_72)" style="mix-blend-mode:multiply"/>
<path d="M99.1331 109.754C99.2491 117.78 93.294 124.368 85.8346 124.469C78.3753 124.57 72.2316 118.144 72.1178 110.125C72.004 102.105 77.9548 95.5075 85.4152 95.4067C92.8756 95.3059 99.0182 101.729 99.1331 109.754Z" fill="#F0CB7D"/>
<path opacity="0.75" d="M99.4387 111.282C99.56 119.667 93.6526 126.545 86.2453 126.645C78.838 126.746 72.7344 120.035 72.6141 111.647C72.4938 103.258 78.4034 96.3833 85.8075 96.2825C93.2115 96.1817 99.3195 102.899 99.4387 111.282Z" fill="url(#paint8_linear_461_72)" style="mix-blend-mode:multiply"/>
<path d="M98.6393 110.528C98.7542 118.498 93.1426 125.036 86.0983 125.131C79.0541 125.227 73.2561 118.846 73.1423 110.875C73.0285 102.904 78.6412 96.3678 85.6822 96.2713C92.7232 96.1749 98.5244 102.559 98.6393 110.528Z" fill="url(#paint9_linear_461_72)" style="mix-blend-mode:multiply"/>
<path d="M97.6498 111.308C97.7582 119.2 92.203 125.673 85.2313 125.768C78.2597 125.863 72.5159 119.542 72.4021 111.651C72.2883 103.761 77.8479 97.2854 84.8195 97.1911C91.7912 97.0968 97.536 103.417 97.6498 111.308Z" fill="#FDF8F9"/>
<path d="M89.901 116.178C89.9411 118.995 88.0163 121.307 85.6007 121.339C83.1851 121.372 81.1921 119.119 81.152 116.301C81.1119 113.483 83.0366 111.172 85.4522 111.139C87.8679 111.107 89.8609 113.359 89.901 116.178Z" fill="#111214"/>
<path d="M83.0032 114.549C83.0162 115.499 82.4689 116.283 81.7786 116.288C81.0883 116.293 80.5171 115.529 80.5041 114.582C80.4911 113.635 81.0384 112.848 81.7288 112.843C82.4191 112.837 82.9891 113.597 83.0032 114.549Z" fill="#FDF8F9"/>
<path opacity="0.38" d="M85.0607 97.1954C88.0952 98.588 90.2627 101.956 90.3212 105.921C90.397 111.181 86.7286 115.498 82.126 115.559C77.5234 115.621 73.7325 111.408 73.6566 106.147C73.6512 105.806 73.6642 105.469 73.6902 105.137C72.803 107.192 72.364 109.413 72.4027 111.651C72.5165 119.542 78.2603 125.862 85.2309 125.768C92.2015 125.674 97.7632 119.2 97.6505 111.308C97.5378 103.514 91.9229 97.2475 85.0607 97.1954Z" fill="url(#paint10_linear_461_72)" style="mix-blend-mode:multiply"/>
<path opacity="0.45" d="M85.8282 124.846C80.4193 125.201 75.5436 121.762 73.2461 116.57C75.0993 122.007 79.7918 125.84 85.2322 125.767C91.2166 125.685 96.1562 120.903 97.37 114.561C95.8625 120.229 91.3802 124.481 85.8282 124.846Z" fill="#FDF8F9"/>
<path opacity="0.32" d="M93.6365 119.952C93.1618 120.359 92.6688 120.56 92.5355 120.398C92.4022 120.237 92.6785 119.774 93.1543 119.366C93.63 118.957 94.122 118.759 94.2553 118.92C94.3886 119.082 94.1177 119.543 93.6365 119.952Z" fill="#FDF8F9"/>
<path d="M76.9277 90.2764C76.9277 90.2764 83.959 85.3541 93.0526 87.501C93.0526 87.501 94.2447 85.9176 93.8372 83.2679C93.8372 83.2679 84.5908 81.7149 76.9277 90.2764Z" fill="#34404E"/>
<path d="M93.0526 87.5011C93.0526 87.5011 93.5262 86.8661 93.7733 85.7314C84.3632 82.6558 76.9277 90.2766 76.9277 90.2766C76.9277 90.2766 83.959 85.3543 93.0526 87.5011Z" fill="url(#paint11_linear_461_72)" style="mix-blend-mode:multiply"/>
<path d="M68.5918 130.406L135.694 139.458C135.694 139.458 104.666 192.574 68.5918 130.406Z" fill="#C25746"/>
<path opacity="0.68" d="M68.5918 130.406L135.694 139.458C135.694 139.458 104.666 192.574 68.5918 130.406Z" fill="url(#paint12_linear_461_72)" style="mix-blend-mode:multiply"/>
<path d="M85.6555 147.49C89.9763 146.221 94.4229 145.16 98.9182 145.3C107.19 145.558 114.768 149.822 121.471 154.894C111.694 161.805 97.66 165.16 81.8711 148.688C83.1293 148.264 84.3919 147.861 85.6555 147.49Z" fill="#A44E46"/>
<path opacity="0.68" d="M98.9189 145.3C107.191 145.558 114.768 149.822 121.471 154.894C114.658 159.71 105.775 162.791 95.6785 158.644C99.7382 158.783 105.948 158.154 110.877 154.014C110.877 154.014 98.209 146.531 82.7138 149.537C82.4342 149.257 82.1557 148.985 81.875 148.692C83.13 148.268 84.3925 147.865 85.6561 147.494C89.977 146.221 94.4235 145.16 98.9189 145.3Z" fill="url(#paint13_linear_461_72)" style="mix-blend-mode:multiply"/>
<path d="M78.1534 131.695L126.971 138.281L126.822 139.443C126.531 141.712 124.494 143.308 122.27 143.008L81.5043 137.508C79.2805 137.209 77.7112 135.124 78.0038 132.857L78.1534 131.695Z" fill="#FDF8F9"/>
<path d="M27.1174 126.889C27.2387 126.768 27.3699 126.649 27.5086 126.531L35.6951 128.246C35.6743 128.326 35.6584 128.407 35.6474 128.488C34.8888 134.872 64.97 143.887 102.833 148.623C140.697 153.359 172.006 152.022 172.765 145.638C172.786 145.446 172.78 145.252 172.748 145.062L181.808 146.96C182.014 147.47 182.09 148.023 182.032 148.57C181.039 156.935 145.293 159.346 102.201 153.956C59.1081 148.565 24.9748 137.414 25.9654 129.049C26.0575 128.278 26.4444 127.557 27.1054 126.888L27.1174 126.889Z" fill="#CD6145"/>
<path d="M102.212 151.706C143.654 156.898 178.302 154.906 181.935 147.352C182.045 147.748 182.077 148.161 182.032 148.57C181.039 156.935 145.293 159.346 102.201 153.956C59.1081 148.565 24.9748 137.414 25.9654 129.049C25.9869 128.875 26.0232 128.703 26.0737 128.535C29.5796 136.644 62.0016 146.668 102.212 151.706Z" fill="#F0CB7D"/>
<path d="M102.245 152.764C144.75 158.074 180.099 155.807 182.013 147.718C182.059 148 182.066 148.287 182.034 148.57C181.041 156.935 145.295 159.347 102.203 153.956C59.1102 148.566 24.9748 137.414 25.9654 129.05C25.9802 128.935 26.0015 128.822 26.0293 128.71C27.32 136.965 60.5928 147.555 102.245 152.764Z" fill="#513532"/>
<path opacity="0.39" d="M116.097 72.8658C116.097 72.8658 66.1079 64.7215 56.5039 121.558C56.5039 121.558 68.8335 72.4182 116.097 72.8658Z" fill="#F9E48C"/>
<defs>
<linearGradient id="paint0_linear_461_72" x1="160.298" y1="118.013" x2="53.3451" y2="145.578" gradientUnits="userSpaceOnUse">
<stop stop-color="#CA9B4A"/>
<stop offset="1" stop-color="#EDECEC"/>
</linearGradient>
<linearGradient id="paint1_linear_461_72" x1="677445" y1="-160488" x2="694361" y2="-193517" gradientUnits="userSpaceOnUse">
<stop stop-color="#CA9B4A"/>
<stop offset="1" stop-color="#EDECEC"/>
</linearGradient>
<linearGradient id="paint2_linear_461_72" x1="123.902" y1="89.8378" x2="125.723" y2="79.7127" gradientUnits="userSpaceOnUse">
<stop stop-color="#4D4D4D"/>
<stop offset="1" stop-color="#EDECEC"/>
</linearGradient>
<linearGradient id="paint3_linear_461_72" x1="-277215" y1="64379.7" x2="-283731" y2="62343.5" gradientUnits="userSpaceOnUse">
<stop stop-color="#CA9B4A"/>
<stop offset="1" stop-color="#EDECEC"/>
</linearGradient>
<linearGradient id="paint4_linear_461_72" x1="-516127" y1="12675.5" x2="-512911" y2="18450.4" gradientUnits="userSpaceOnUse">
<stop stop-color="#4D4D4D"/>
<stop offset="1" stop-color="#EDECEC"/>
</linearGradient>
<linearGradient id="paint5_linear_461_72" x1="-508553" y1="19574.4" x2="-510870" y2="14503.8" gradientUnits="userSpaceOnUse">
<stop stop-color="#4D4D4D"/>
<stop offset="1" stop-color="#EDECEC"/>
</linearGradient>
<linearGradient id="paint6_linear_461_72" x1="-317582" y1="24974" x2="-317567" y2="24219" gradientUnits="userSpaceOnUse">
<stop stop-color="#4D4D4D"/>
<stop offset="1" stop-color="#EDECEC"/>
</linearGradient>
<linearGradient id="paint7_linear_461_72" x1="-333985" y1="-59308.7" x2="-333712" y2="-60433.9" gradientUnits="userSpaceOnUse">
<stop stop-color="#4D4D4D"/>
<stop offset="1" stop-color="#EDECEC"/>
</linearGradient>
<linearGradient id="paint8_linear_461_72" x1="-284601" y1="63513.9" x2="-291065" y2="61493.8" gradientUnits="userSpaceOnUse">
<stop stop-color="#CA9B4A"/>
<stop offset="1" stop-color="#EDECEC"/>
</linearGradient>
<linearGradient id="paint9_linear_461_72" x1="-522148" y1="11745.7" x2="-518958" y2="17475.5" gradientUnits="userSpaceOnUse">
<stop stop-color="#4D4D4D"/>
<stop offset="1" stop-color="#EDECEC"/>
</linearGradient>
<linearGradient id="paint10_linear_461_72" x1="-514555" y1="18598.3" x2="-516853" y2="13567.6" gradientUnits="userSpaceOnUse">
<stop stop-color="#4D4D4D"/>
<stop offset="1" stop-color="#EDECEC"/>
</linearGradient>
<linearGradient id="paint11_linear_461_72" x1="-329293" y1="-65971.7" x2="-329133" y2="-66615.9" gradientUnits="userSpaceOnUse">
<stop stop-color="#4D4D4D"/>
<stop offset="1" stop-color="#EDECEC"/>
</linearGradient>
<linearGradient id="paint12_linear_461_72" x1="107.29" y1="119.5" x2="88.7804" y2="156.691" gradientUnits="userSpaceOnUse">
<stop stop-color="#8A4946"/>
<stop offset="1" stop-color="#EDECEC"/>
</linearGradient>
<linearGradient id="paint13_linear_461_72" x1="-288749" y1="2530.56" x2="-303242" y2="627.472" gradientUnits="userSpaceOnUse">
<stop stop-color="#8A4946"/>
<stop offset="1" stop-color="#EDECEC"/>
</linearGradient>
</defs>
</svg>
